<?xml version="1.0" standalone="no"?>
<!DOCTYPE svg PUBLIC "-//W3C//DTD SVG 20010904//EN"
 "http://www.w3.org/TR/2001/REC-SVG-20010904/DTD/svg10.dtd">
<svg version="1.0" xmlns="http://www.w3.org/2000/svg"
 width="359.000000pt" height="359.000000pt" viewBox="0 0 359.000000 359.000000"
 preserveAspectRatio="xMidYMid meet">

<g transform="translate(0.000000,359.000000) scale(0.100000,-0.100000)"
fill="#000000" stroke="none">
<path d="M2330 3150 c0 -11 -4 -20 -10 -20 -5 0 -10 -7 -10 -15 0 -18 -14 -19
-41 -2 -17 10 -22 9 -29 -3 -4 -8 -18 -26 -29 -39 -12 -13 -21 -26 -21 -27 0
-2 17 -12 38 -23 l37 -20 -62 -1 c-49 0 -63 3 -63 15 0 11 -9 8 -36 -10 -20
-14 -43 -25 -50 -25 -17 0 -18 -12 -1 -29 10 -11 7 -12 -13 -6 -35 10 -36 14
-13 30 11 8 23 26 25 40 3 14 3 23 0 21 -2 -3 -25 13 -50 34 -48 43 -61 47
-80 28 -18 -18 -14 -59 9 -97 15 -25 17 -36 8 -41 -7 -5 -37 17 -80 60 -50 50
-73 67 -88 63 -13 -3 -23 2 -30 15 -15 29 -40 35 -68 16 -20 -12 -24 -22 -21
-48 3 -29 0 -34 -35 -49 -38 -16 -39 -16 -34 3 7 28 -14 40 -76 47 -43 4 -56
10 -60 24 -16 59 -83 10 -142 -102 -39 -75 -44 -105 -16 -114 21 -6 33 -52 20
-76 -10 -20 -63 -46 -143 -69 -34 -10 -54 -19 -45 -19 9 -1 20 -8 23 -17 5
-13 11 -12 46 7 33 19 44 21 65 11 27 -12 34 -32 11 -32 -8 0 -38 -27 -68 -60
-41 -45 -58 -56 -66 -48 -19 19 -22 4 -7 -26 14 -25 13 -27 0 -16 -8 7 -15 17
-15 23 0 24 -32 46 -60 41 -16 -4 -40 1 -59 11 -47 24 -71 12 -71 -33 0 -20
-3 -54 -6 -74 -6 -37 -6 -37 40 -50 26 -8 46 -18 45 -23 -2 -6 -35 -26 -73
-47 -50 -25 -72 -42 -74 -58 -5 -29 15 -50 46 -50 l26 0 -22 -22 -22 -22 -20
22 c-24 25 -34 23 -110 -29 -83 -55 -86 -61 -50 -99 17 -18 28 -35 25 -38 -3
-3 -11 0 -17 6 -16 16 -38 15 -95 -4 -64 -21 -131 -64 -137 -87 -5 -21 26 -57
49 -57 8 0 51 18 95 40 l81 39 41 -21 c23 -12 55 -21 71 -20 16 2 39 -1 51 -5
20 -6 20 -7 -4 -14 -20 -6 -17 -7 20 -9 42 -2 43 -3 15 -10 -26 -7 -23 -8 25
-10 48 -3 50 -4 15 -7 -69 -6 -91 -13 -74 -24 16 -11 -51 -2 -89 12 -13 5 -25
9 -27 9 -9 0 -23 -63 -18 -77 5 -13 2 -15 -11 -10 -42 16 -67 18 -81 7 -8 -6
-21 -45 -31 -86 l-16 -74 -50 0 -51 0 7 -42 c8 -49 30 -78 60 -78 62 -1 66 -7
65 -89 0 -42 -3 -70 -6 -63 -2 6 -17 12 -31 11 -25 0 -25 -1 -7 -10 14 -7 7
-8 -28 -4 -42 4 -47 3 -47 -15 0 -21 36 -42 95 -56 29 -7 29 -7 -20 -21 -76
-21 -100 -35 -103 -65 -3 -24 2 -28 37 -39 32 -9 50 -9 88 2 42 12 91 14 101
4 9 -8 -10 -45 -20 -39 -6 4 -8 -2 -4 -17 6 -21 5 -22 -4 -6 -7 10 -9 25 -6
33 3 8 2 14 -3 14 -8 0 -35 -64 -46 -110 -16 -67 44 -113 91 -69 13 12 24 26
24 30 0 4 5 20 11 36 11 27 12 27 25 -32 8 -33 16 -69 19 -81 2 -11 16 -26 29
-32 13 -6 26 -21 28 -34 5 -34 50 -37 76 -4 23 30 32 33 32 11 0 -9 7 -27 16
-40 10 -15 12 -25 5 -25 -6 0 -11 5 -11 10 0 6 -7 10 -16 10 -13 0 -15 -7 -11
-34 8 -50 77 -205 96 -215 9 -5 42 -9 73 -10 50 -1 62 3 102 34 26 19 50 35
54 35 15 0 34 -128 22 -149 -23 -44 15 -68 96 -58 44 5 46 3 62 -30 13 -27 14
-38 4 -53 -16 -25 -15 -62 1 -84 10 -13 30 -18 95 -19 46 -2 87 -8 93 -14 7
-7 15 -29 18 -50 5 -32 11 -38 33 -41 20 -2 38 7 71 38 43 39 77 46 77 15 0
-6 11 -25 24 -40 21 -24 33 -29 84 -31 56 -2 60 0 73 24 7 15 14 54 15 87 2
33 6 77 9 97 7 35 9 36 40 31 27 -4 35 -1 54 26 12 17 29 31 36 31 8 0 22 11
31 25 9 14 33 33 53 41 20 8 47 26 61 38 14 13 48 31 75 40 28 9 57 22 66 29
26 20 51 77 45 102 -7 26 20 43 38 25 25 -25 115 2 179 53 60 49 61 49 97 22
36 -27 79 -32 98 -13 19 19 14 36 -22 71 -19 17 -40 45 -46 61 -9 25 -8 32 12
53 20 21 21 28 11 63 -9 35 -8 41 13 61 13 12 26 30 30 41 8 27 22 22 29 -12
6 -27 30 -50 52 -50 14 0 32 60 39 126 6 57 8 61 37 70 40 12 43 25 12 62 -14
16 -25 38 -25 48 0 14 10 8 36 -24 20 -23 49 -49 65 -57 51 -27 50 13 -2 96
-28 44 -29 49 -18 98 l11 51 25 -20 c14 -11 35 -20 47 -20 12 0 27 -5 33 -11
6 -6 23 -9 39 -7 24 2 31 11 46 53 10 28 23 59 29 71 6 11 9 36 7 55 -3 32 -5
34 -38 33 -19 0 -42 -4 -51 -8 -25 -11 -49 53 -42 114 5 46 4 52 -16 57 -25 6
-24 5 -9 37 9 22 8 29 -7 46 -18 20 -18 21 3 41 27 25 20 43 -46 112 -30 30
-41 47 -30 47 18 0 41 48 41 85 0 32 24 54 33 31 8 -20 24 -11 24 15 0 10 3
19 8 19 10 0 39 67 47 107 5 27 4 32 -8 27 -8 -3 -18 0 -22 5 -3 6 -11 9 -16
6 -5 -4 -9 0 -9 8 0 20 -23 27 -102 34 l-68 6 0 -27 c0 -35 42 -60 126 -77 58
-11 64 -15 58 -33 -15 -51 -46 -78 -50 -45 -1 5 -2 14 -3 19 0 6 -6 10 -12 10
-6 0 -17 6 -24 14 -11 10 -24 12 -51 6 -40 -9 -73 6 -93 45 -10 18 -10 17 -5
-5 4 -14 13 -29 20 -33 20 -11 17 -28 -3 -20 -11 4 -14 3 -9 -5 15 -25 -15
-10 -41 20 -16 17 -47 52 -70 77 -24 25 -43 51 -43 59 0 7 -7 26 -15 42 -15
29 -14 30 10 36 20 5 24 11 20 28 -12 40 -27 76 -34 76 -15 -1 -42 -30 -36
-39 8 -13 -5 -14 -24 -2 -8 5 -10 14 -6 21 6 10 0 11 -27 6 -55 -10 -68 -1
-54 38 6 18 24 44 39 57 18 16 28 36 29 58 3 30 -1 36 -22 41 -28 7 -80 -9
-80 -24 0 -5 -6 -1 -14 9 -10 14 -25 18 -65 16 -39 -1 -51 2 -51 13 0 8 -12
24 -26 35 -19 15 -23 22 -13 26 20 7 17 70 -3 95 -20 22 -63 27 -71 8 -3 -7
-6 -4 -6 7 -1 11 -6 37 -12 58 -9 32 -14 37 -39 37 -23 0 -30 -5 -30 -20z
m-615 -40 c3 -5 1 -10 -4 -10 -6 0 -11 5 -11 10 0 6 2 10 4 10 3 0 8 -4 11
-10z m275 -71 c0 -5 -7 -6 -15 -2 -9 3 -14 8 -11 11 3 2 1 14 -5 26 -9 19 -8
19 10 -3 12 -13 21 -27 21 -32z m-313 -1 c-3 -7 -5 -2 -5 12 0 14 2 19 5 13 2
-7 2 -19 0 -25z m263 11 c0 -6 -4 -7 -10 -4 -5 3 -10 11 -10 16 0 6 5 7 10 4
6 -3 10 -11 10 -16z m-392 -8 c11 -6 10 -10 -4 -15 -9 -3 -19 -4 -22 -1 -3 3
1 5 9 6 8 0 6 4 -6 9 -13 6 -15 9 -5 9 8 0 21 -3 28 -8z m287 -21 c10 -11 14
-20 9 -20 -5 0 -15 9 -22 20 -7 11 -11 20 -9 20 2 0 12 -9 22 -20z m-390 -10
c3 -5 1 -10 -4 -10 -6 0 -11 5 -11 10 0 6 2 10 4 10 3 0 8 -4 11 -10z m909
-11 c5 -5 7 -12 3 -16 -4 -4 -13 -1 -19 5 -7 7 -20 12 -31 12 -10 0 -15 5 -12
10 7 11 43 4 59 -11z m-732 -44 c-5 -30 -22 -44 -22 -18 0 15 -2 16 -10 3 -6
-9 -10 -10 -10 -3 0 24 13 43 30 43 13 0 16 -6 12 -25z m-102 0 c19 -10 27
-20 24 -30 -8 -21 -17 -19 -33 6 -10 18 -15 19 -22 8 -7 -11 -9 -8 -9 9 0 26
2 27 40 7z m296 -23 c-9 -8 -26 10 -26 26 1 15 2 15 15 -2 8 -11 13 -21 11
-24z m-353 4 c3 -8 0 -20 -8 -26 -8 -6 -17 -25 -20 -41 -4 -16 -10 -29 -13
-29 -4 0 -13 -9 -20 -21 -10 -16 -11 -24 -1 -35 9 -11 9 -18 1 -26 -7 -7 -12
-8 -12 -4 0 5 -12 1 -26 -9 -55 -36 -54 16 3 107 13 21 23 41 23 45 0 12 43
53 56 53 6 0 14 -6 17 -14z m861 -51 c21 -31 20 -35 -4 -35 -13 0 -20 7 -20
20 0 12 -10 24 -22 30 -22 9 -22 9 3 9 18 1 32 -7 43 -24z m-44 -4 c0 -5 -7
-11 -14 -14 -10 -4 -13 -1 -9 9 6 15 23 19 23 5z m-784 -24 c1 -7 5 -29 9 -49
6 -33 5 -38 -11 -38 -13 0 -15 3 -7 8 8 5 9 13 3 22 -11 17 -14 87 -3 76 4 -3
8 -12 9 -19z m519 -4 c20 -11 34 -24 32 -33 -3 -18 -47 -27 -47 -9 0 7 -10 23
-22 36 -26 27 -12 30 37 6z m625 2 c0 -8 -4 -15 -10 -15 -5 0 -10 7 -10 15 0
8 5 15 10 15 6 0 10 -7 10 -15z m-250 -44 c5 -11 10 -31 10 -45 0 -16 6 -26
14 -26 9 0 12 7 9 20 -3 12 0 20 7 20 9 0 11 -13 8 -45 -4 -28 -1 -46 6 -49 6
-2 2 -5 -10 -5 -11 -1 -28 7 -36 17 -15 18 -38 87 -38 116 0 22 17 20 30 -3z
m-600 -46 c21 -25 1 -31 -22 -7 -18 18 -19 22 -6 22 8 0 21 -7 28 -15z m170
-14 c26 -12 36 -23 38 -44 3 -25 1 -27 -31 -27 -19 0 -40 7 -47 15 -7 8 -9 15
-4 16 5 0 -2 5 -16 11 l-25 11 25 7 c14 5 18 8 9 9 -9 1 -20 8 -23 17 -7 17
13 14 74 -15z m-265 -10 c-3 -6 -11 -9 -16 -6 -5 4 -9 -8 -9 -25 0 -18 -4 -29
-10 -25 -5 3 -10 19 -10 35 0 22 5 29 23 32 27 5 31 3 22 -11z m485 -31 c-25
-32 -38 -40 -63 -40 -33 0 -66 15 -56 24 4 4 117 46 147 55 2 1 -11 -17 -28
-39z m460 5 c11 -13 8 -15 -14 -15 -25 0 -33 10 -19 23 10 11 19 8 33 -8z
m-36 -47 c10 -24 24 -58 32 -76 19 -44 19 -68 0 -53 -11 10 -15 8 -19 -6 -3
-13 -5 -10 -6 8 0 14 -7 48 -15 75 -23 80 -27 106 -18 100 5 -3 17 -24 26 -48z
m-185 -20 c7 -15 11 -36 8 -47 -3 -12 -1 -19 4 -15 5 3 9 -2 9 -11 0 -10 -7
-15 -17 -13 -11 2 -23 24 -35 62 -25 83 -7 97 31 24z m-429 -20 c22 -37 26
-68 9 -68 -20 0 -59 50 -59 76 0 35 26 30 50 -8z m665 -26 c-13 -13 -23 22
-12 42 11 20 12 20 15 -7 2 -16 1 -32 -3 -35z m-965 -22 c0 -5 -5 -10 -11 -10
-5 0 -7 5 -4 10 3 6 8 10 11 10 2 0 4 -4 4 -10z m1080 1 c0 -15 -52 -23 -64
-10 -8 9 -6 10 12 6 12 -3 22 -1 22 4 0 5 7 9 15 9 8 0 15 -4 15 -9z m-1425
-41 c-5 -8 -11 -8 -17 -2 -6 6 -7 16 -3 22 5 8 11 8 17 2 6 -6 7 -16 3 -22z
m-35 1 c14 -26 13 -28 -11 -34 -12 -3 -18 -10 -14 -16 4 -7 -4 -11 -19 -11
-30 0 -57 -10 -52 -19 3 -4 -4 -8 -15 -8 -30 -3 -23 10 31 61 55 51 65 55 80
27z m130 11 c0 -4 -13 -22 -30 -40 -16 -18 -35 -42 -40 -53 -11 -20 -45 -26
-55 -10 -3 6 0 14 7 20 7 6 33 28 58 51 44 39 60 48 60 32z m970 -29 c0 -19
-13 -9 -16 12 -1 8 2 13 7 9 5 -3 9 -12 9 -21z m169 -12 c-32 -43 -54 -39 -42
8 4 18 11 22 29 18 13 -2 24 0 24 6 0 6 3 8 6 4 3 -3 -4 -19 -17 -36z m-565
18 c14 -7 30 -25 36 -42 10 -29 9 -29 -8 -14 -10 10 -22 17 -27 17 -11 0 -45
31 -45 42 0 11 14 10 44 -3z m422 -16 c-10 -10 -19 5 -10 18 6 11 8 11 12 0 2
-7 1 -15 -2 -18z m-553 -15 c9 -18 28 -52 42 -75 13 -24 22 -49 19 -58 -7 -18
-49 -20 -58 -2 -23 46 -46 72 -65 75 -23 4 -25 27 -3 50 6 7 12 20 12 28 0 27
36 14 53 -18z m497 -54 c32 -68 36 -99 10 -99 -19 0 -50 -33 -50 -52 0 -8 -5
-13 -12 -11 -7 3 -18 33 -25 69 -7 35 -20 69 -28 75 -21 16 -19 24 5 19 11 -2
20 1 20 7 0 6 6 6 15 -2 14 -11 14 -10 5 14 -5 15 -8 32 -4 37 13 22 34 4 64
-57z m-614 18 c5 -4 11 -29 13 -57 1 -27 7 -67 13 -88 13 -45 7 -54 -27 -39
-14 7 -37 12 -50 12 -16 0 -25 6 -25 16 0 11 6 15 19 11 13 -3 18 0 15 8 -3 7
0 16 6 20 8 5 9 10 2 14 -6 3 -14 30 -18 59 -6 50 -6 52 17 52 13 0 29 -4 35
-8z m-246 -12 c0 -12 -40 -34 -47 -26 -9 8 17 36 33 36 8 0 14 -4 14 -10z
m958 -95 c-25 -29 -34 -31 -42 -10 -4 10 2 19 17 25 39 16 48 11 25 -15z
m-316 -30 c12 -16 9 -35 -6 -35 -7 0 -16 8 -19 18 -2 9 -8 26 -13 37 -7 19 -6
19 12 5 10 -8 22 -19 26 -25z m-1082 12 c0 -7 -9 -19 -20 -27 -11 -8 -20 -20
-20 -26 0 -6 -7 -18 -16 -25 -15 -12 -16 -11 -9 11 4 14 11 27 15 30 4 3 12
15 19 28 13 24 31 30 31 9z m340 1 c0 -7 -7 -21 -14 -31 -13 -16 -14 -16 -19
5 -3 12 -4 25 -1 30 8 13 34 9 34 -4z m640 8 c0 -3 -24 -12 -52 -22 -29 -9
-58 -23 -66 -30 -7 -7 -20 -10 -29 -7 -12 5 -15 2 -10 -10 3 -9 2 -17 -2 -17
-5 0 -11 7 -14 15 -6 14 49 62 59 52 3 -3 22 1 42 8 37 14 72 19 72 11z m949
-43 c15 -61 23 -102 15 -85 -10 21 -22 13 -16 -10 5 -21 4 -22 -11 -9 -20 16
-23 1 -4 -18 10 -11 9 -13 -1 -7 -14 9 -38 53 -57 107 -14 38 -13 39 13 54 41
22 48 19 61 -32z m-519 6 c0 -5 -7 -9 -15 -9 -15 0 -20 12 -9 23 8 8 24 -1 24
-14z m345 -20 c20 -7 20 -8 -1 -8 -27 -1 -84 19 -84 29 0 8 35 -1 85 -21z
m-380 -9 c-7 -12 -45 -14 -45 -2 0 4 11 9 26 10 14 1 23 -2 19 -8z m701 -34
c2 -14 0 -15 -12 -5 -17 14 -19 32 -2 27 6 -2 12 -12 14 -22z m-1401 -54 c-6
-7 -68 32 -73 46 -2 6 15 0 37 -15 23 -14 39 -28 36 -31z m-745 41 c-1 -18
-18 -35 -24 -24 -4 6 -2 11 4 11 6 0 8 5 5 10 -3 6 -1 10 4 10 6 0 11 -3 11
-7z m-59 -14 c11 -5 17 -14 14 -20 -4 -5 -10 -7 -15 -4 -5 3 -11 1 -15 -5 -3
-5 1 -10 9 -10 9 0 16 -4 16 -10 0 -5 6 -10 13 -10 13 0 22 -39 9 -41 -4 0
-17 -2 -29 -5 -14 -2 -23 1 -23 9 0 8 -4 7 -11 -3 -9 -12 -10 -10 -6 8 5 19 3
21 -9 11 -9 -7 -14 -8 -14 -1 0 6 4 13 9 16 5 3 7 15 4 26 -6 24 3 50 17 50 6
0 20 -5 31 -11z m880 -37 c-13 -4 -41 16 -41 29 0 5 12 2 26 -8 15 -9 21 -19
15 -21z m97 13 c-1 -13 -6 -21 -10 -17 -5 5 -6 16 -2 25 9 24 14 21 12 -8z
m-670 -31 c-9 -9 -21 -13 -28 -9 -9 6 -6 12 11 21 29 15 38 9 17 -12z m52 4
c-6 -13 -13 -31 -16 -40 -8 -22 -24 -24 -24 -3 0 24 23 65 36 65 10 0 11 -6 4
-22z m250 0 c0 -12 -3 -18 -7 -15 -12 13 -37 -37 -35 -70 2 -26 -1 -33 -15
-32 -11 0 -13 3 -5 6 12 5 17 43 6 43 -4 0 -13 -8 -20 -17 -7 -10 -14 -13 -14
-6 0 6 11 24 24 40 13 15 26 38 30 51 9 28 36 29 36 0z m1470 12 c0 -5 -5 -10
-11 -10 -5 0 -7 5 -4 10 3 6 8 10 11 10 2 0 4 -4 4 -10z m-770 -9 c0 -12 -20
-25 -27 -18 -7 7 6 27 18 27 5 0 9 -4 9 -9z m668 -29 c-12 -2 -24 2 -29 9 -14
23 1 30 26 12 22 -17 22 -18 3 -21z m-58 21 c-1 -18 -21 -38 -39 -39 -31 -2
-33 23 -3 35 34 12 42 13 42 4z m-1985 -13 c-8 -12 30 -62 39 -52 4 3 4 -1 0
-11 -5 -14 -2 -16 12 -10 14 5 13 0 -7 -18 -14 -13 -29 -33 -33 -44 -7 -20 -8
-20 -21 -1 -8 10 -16 24 -18 30 -3 7 -11 5 -24 -6 -26 -24 -33 -23 -33 7 0 24
32 51 49 41 5 -3 11 1 15 9 3 9 0 15 -9 15 -19 0 -19 9 2 32 17 19 39 25 28 8z
m1679 -19 c3 -5 -1 -11 -9 -15 -9 -3 -15 0 -15 9 0 16 16 20 24 6z m-1360 -33
c8 -31 8 -83 -1 -75 -9 10 -21 97 -13 97 4 0 10 -10 14 -22z m1509 -40 c6 -22
5 -22 -8 -4 -17 22 -20 40 -6 32 5 -3 11 -16 14 -28z m-776 -31 c-2 -7 3 -21
12 -31 15 -18 15 -18 -6 -7 -12 6 -25 16 -28 22 -10 15 3 41 15 34 6 -4 9 -12
7 -18z m-435 -12 c-2 -14 -6 -25 -8 -25 -2 0 -4 11 -4 25 0 14 4 25 9 25 4 0
6 -11 3 -25z m245 -8 c-3 -7 4 -19 14 -25 10 -7 19 -19 19 -27 0 -21 -68 -85
-89 -85 -25 0 -33 -11 -20 -27 17 -20 -14 -49 -61 -57 -22 -3 -40 -10 -40 -14
0 -4 -10 -8 -22 -9 -12 -1 -26 -9 -30 -18 -11 -18 -52 -21 -45 -2 2 6 10 11
16 9 7 -1 10 2 7 7 -8 12 41 47 77 56 15 4 30 11 33 16 3 5 -2 6 -10 3 -21 -8
-32 23 -18 47 7 10 12 28 12 40 0 16 4 19 21 14 16 -5 30 2 58 28 31 30 68 56
80 57 2 0 1 -6 -2 -13z m767 -18 c-8 -13 -24 -1 -24 18 0 13 3 13 15 3 8 -7
12 -16 9 -21z m502 2 c-9 -13 -46 -15 -46 -1 0 14 34 30 44 20 4 -4 5 -13 2
-19z m-589 -13 c-3 -8 -6 -5 -6 6 -1 11 2 17 5 13 3 -3 4 -12 1 -19z m-967 -9
c0 -5 -4 -9 -10 -9 -5 0 -10 7 -10 16 0 8 5 12 10 9 6 -3 10 -10 10 -16z m94
6 c23 -17 13 -35 -20 -35 -25 0 -28 7 -18 34 7 19 13 20 38 1z m937 -18 c10
-17 9 -19 -6 -14 -9 4 -21 7 -26 7 -5 0 -9 9 -9 20 0 24 26 17 41 -13z m709 6
c0 -5 -11 -21 -25 -37 -14 -16 -25 -26 -25 -22 0 4 -11 -4 -24 -18 -25 -28
-46 -34 -46 -13 0 21 72 84 77 69 4 -10 9 -8 20 7 15 22 23 26 23 14z m-1410
-63 c0 -5 -7 -10 -16 -10 -8 0 -12 5 -9 10 3 6 10 10 16 10 5 0 9 -4 9 -10z
m45 -27 c-34 -18 -115 -45 -115 -37 0 5 46 24 72 29 10 2 26 8 35 14 10 6 23
10 28 10 6 0 -3 -7 -20 -16z m621 0 c17 -23 17 -33 1 -33 -18 0 -49 34 -40 43
11 12 25 8 39 -10z m-1572 -9 c3 -8 0 -27 -8 -42 -22 -42 -105 -112 -132 -112
-24 0 -23 30 1 54 13 13 27 36 31 50 6 24 29 33 67 27 4 0 7 4 7 10 0 5 5 7
12 3 8 -5 9 -2 5 9 -3 10 -2 17 2 17 5 0 12 -7 15 -16z m453 -32 c12 -13 18
-32 9 -32 -13 0 -36 34 -35 53 0 15 2 17 6 7 4 -8 12 -21 20 -28z m-217 19 c0
-5 -9 -19 -20 -32 -17 -21 -19 -21 -13 -4 10 33 33 57 33 36z m334 -17 c3 -8
2 -12 -4 -9 -6 3 -10 10 -10 16 0 14 7 11 14 -7z m-539 -39 c-16 -32 -35 -46
-35 -28 0 12 44 72 49 67 3 -3 -3 -20 -14 -39z m1645 -24 c-1 -13 -29 45 -29
59 0 8 6 0 14 -19 8 -18 15 -36 15 -40z m-515 22 c0 -16 3 -31 8 -34 5 -4 7
-15 5 -25 -2 -14 -9 -8 -25 25 -22 45 -22 61 1 61 7 0 12 -12 11 -27z m60 -11
c-7 -8 -35 7 -35 18 0 6 7 6 20 -2 10 -7 17 -14 15 -16z m81 -8 c-3 -9 -6 -34
-6 -57 0 -29 -3 -38 -11 -30 -13 13 -2 103 13 103 6 0 7 -7 4 -16z m438 0 c3
-8 10 -12 16 -9 6 3 13 -2 16 -12 3 -10 10 -26 15 -36 9 -17 5 -37 -9 -37 -9
0 -62 84 -62 99 0 16 17 13 24 -5z m391 -6 c14 -21 14 -23 0 -26 -17 -4 -55
24 -55 40 0 17 40 7 55 -14z m-1315 3 c0 -5 -15 -14 -32 -20 l-33 -11 25 20
c27 21 40 25 40 11z m784 -17 c7 -19 2 -18 -19 6 -16 17 -16 20 -3 15 9 -4 19
-13 22 -21z m-1801 -6 c4 -12 4 -24 2 -27 -3 -2 -5 2 -5 10 0 11 -2 11 -8 1
-5 -7 -16 -10 -25 -7 -14 6 -14 8 1 26 21 25 28 24 35 -3z m371 7 c3 -8 1 -15
-4 -15 -6 0 -10 7 -10 15 0 8 2 15 4 15 2 0 6 -7 10 -15z m2190 -11 c4 -9 4
-19 2 -21 -8 -8 -26 8 -26 23 0 19 16 18 24 -2z m-1463 -35 c-24 -20 -67 -27
-56 -9 3 6 2 10 -3 10 -5 0 -12 -9 -15 -20 -5 -19 3 -24 32 -21 7 2 10 -2 6
-8 -3 -6 -18 -11 -31 -11 -24 0 -25 3 -19 33 10 44 7 42 62 44 l48 1 -24 -19z
m1099 4 c6 -5 -43 -93 -52 -93 -5 0 -8 7 -8 15 0 7 -7 18 -16 23 -15 8 -15 12
0 41 14 27 20 30 44 25 15 -4 29 -9 32 -11z m-805 -12 c3 -5 1 -12 -5 -16 -5
-3 -10 1 -10 9 0 18 6 21 15 7z m1205 -2 c0 -16 -37 -69 -43 -62 -4 3 -7 20
-7 37 0 26 4 31 25 32 14 1 25 -2 25 -7z m-2010 -9 c12 -8 9 -10 -12 -10 -16
0 -28 5 -28 10 0 13 20 13 40 0z m620 0 c0 -5 -9 -10 -21 -10 -11 0 -17 5 -14
10 3 6 13 10 21 10 8 0 14 -4 14 -10z m455 -30 c-3 -4 1 -11 7 -13 8 -3 6 -6
-4 -6 -12 -1 -18 6 -18 20 0 11 5 17 10 14 6 -4 8 -10 5 -15z m-485 -27 c36
-25 50 -40 43 -47 -3 -3 -12 -1 -20 5 -7 6 -13 8 -12 3 0 -5 22 -27 47 -49 25
-22 42 -34 38 -27 -13 21 12 13 28 -10 21 -30 20 -45 -3 -58 -16 -8 -26 -4
-53 20 -18 16 -37 30 -42 30 -5 0 -7 3 -3 6 3 3 -10 20 -29 36 -43 38 -57 63
-49 88 8 25 23 25 55 3z m-560 -3 c0 -11 -27 -20 -61 -20 -34 0 -39 17 -6 22
45 6 67 6 67 -2z m703 -17 c18 -10 34 -19 36 -20 1 -1 0 -6 -4 -12 -6 -11 -78
20 -90 39 -10 16 24 12 58 -7z m-823 -13 c-9 -17 -60 -30 -60 -16 0 22 17 36
41 36 27 0 29 -2 19 -20z m419 -10 c35 -34 37 -40 16 -40 -8 0 -15 -5 -15 -11
0 -6 -6 -9 -14 -6 -8 3 -17 1 -19 -6 -3 -8 -10 -7 -24 6 -11 9 -28 17 -39 17
-15 0 -16 -2 -5 -9 11 -7 9 -11 -8 -20 -17 -10 -21 -9 -21 4 0 9 -4 13 -10 10
-5 -3 -10 -2 -10 4 0 5 8 15 18 20 19 11 3 15 -22 5 -25 -10 -19 -33 14 -52
32 -18 43 -49 13 -37 -27 11 -38 11 -41 0 -2 -5 -9 -19 -14 -29 -8 -14 -6 -21
6 -28 9 -5 16 -13 16 -18 0 -14 -27 -12 -34 3 -3 6 -3 0 0 -14 6 -26 -16 -46
-37 -33 -5 3 -9 -8 -9 -24 0 -35 -20 -55 -52 -50 -19 2 -23 10 -26 46 -3 36 0
42 17 42 49 0 84 44 88 110 5 85 11 92 121 120 19 4 36 11 39 14 11 11 19 7
52 -24z m471 -36 c0 -8 -9 -14 -20 -14 -19 0 -27 19 -14 33 10 9 34 -4 34 -19z
m69 -13 c-16 -5 -33 15 -24 30 6 9 12 7 22 -7 9 -13 10 -20 2 -23z m899 27 c7
-7 12 -15 12 -18 0 -11 -36 -50 -46 -50 -5 0 -18 -11 -30 -26 -28 -32 -37 -19
-20 31 13 36 40 59 58 48 4 -2 5 3 2 11 -7 19 7 21 24 4z m-2262 -35 c-13 -24
-15 -25 -16 -7 0 11 5 25 12 32 19 19 21 6 4 -25z m576 17 c17 -16 18 -20 6
-20 -18 0 -30 -44 -28 -110 l1 -45 -26 25 c-22 21 -25 29 -19 74 11 104 22
117 66 76z m376 -5 c6 -14 16 -25 21 -25 5 0 11 -7 15 -15 4 -13 2 -13 -14 -5
-20 11 -118 14 -107 3 4 -3 2 -12 -4 -20 -9 -10 -6 -18 12 -33 27 -21 14 -26
-25 -9 -21 10 -35 34 -36 61 0 4 9 10 21 13 11 4 24 18 29 31 14 35 72 34 88
-1z m513 -22 c-9 -20 -10 -28 -1 -31 14 -5 58 -51 71 -75 9 -16 8 -17 -10 -7
-12 6 -21 7 -21 3 0 -4 -15 9 -33 29 -18 19 -47 39 -65 42 -49 11 -42 39 18
67 43 21 58 10 41 -28z m-1228 22 c-3 -9 -8 -14 -10 -11 -3 3 -2 9 2 15 9 16
15 13 8 -4z m937 11 c0 -3 -4 -8 -10 -11 -5 -3 -10 -1 -10 4 0 6 5 11 10 11 6
0 10 -2 10 -4z m806 -14 c-7 -12 -46 -23 -46 -13 0 9 43 31 49 25 1 -1 0 -7
-3 -12z m344 14 c0 -2 -8 -10 -17 -17 -16 -13 -17 -12 -4 4 13 16 21 21 21 13z
m-1001 -45 c16 -10 24 -78 10 -86 -13 -9 -47 13 -54 35 -6 19 9 60 23 60 4 0
13 -4 21 -9z m-904 -28 c-4 -10 -10 -28 -13 -41 -2 -13 -11 -26 -18 -29 -8 -3
-14 -16 -14 -30 0 -22 -2 -24 -15 -13 -12 10 -13 15 -4 20 6 4 9 13 5 19 -11
18 34 91 57 91 5 0 6 -8 2 -17z m537 -37 c4 -5 5 -13 2 -18 -6 -9 -34 1 -34
13 0 5 -7 9 -15 9 -8 0 -15 5 -15 10 0 13 52 1 62 -14z m1367 -31 c0 -5 -6 -1
-14 9 -8 11 -15 24 -15 30 0 5 7 1 15 -10 8 -10 14 -23 14 -29z m-1221 28
c-10 -2 -26 -2 -35 0 -10 3 -2 5 17 5 19 0 27 -2 18 -5z m1243 0 c1 -5 3 -19
4 -33 1 -14 5 -34 10 -45 5 -16 3 -15 -13 5 -15 18 -18 28 -10 37 7 9 7 17 -2
28 -9 10 -9 15 -1 15 6 0 12 -3 12 -7z m-2194 -9 c-3 -3 -12 -4 -19 -1 -8 3
-5 6 6 6 11 1 17 -2 13 -5z m330 -16 c-3 -8 -6 -5 -6 6 -1 11 2 17 5 13 3 -3
4 -12 1 -19z m218 12 c3 -5 1 -10 -4 -10 -6 0 -11 5 -11 10 0 6 2 10 4 10 3 0
8 -4 11 -10z m425 -10 c-20 -13 -67 -13 -75 0 -4 6 12 10 42 10 35 0 44 -3 33
-10z m850 2 c0 -12 -57 -52 -63 -45 -13 12 17 53 40 53 12 0 23 -4 23 -8z
m-1528 -41 c0 -9 1 -22 1 -28 -1 -7 9 -13 21 -13 17 0 18 -2 6 -10 -10 -6 -11
-10 -2 -10 14 0 16 -48 2 -70 -8 -13 -11 -12 -24 5 -9 11 -16 27 -16 35 -1 25
-39 -53 -40 -82 0 -15 -3 -29 -8 -32 -4 -2 -6 13 -4 35 4 40 -11 52 -34 29 -7
-7 -18 -4 -34 10 -13 11 -28 20 -34 20 -11 0 -66 63 -66 75 0 3 9 1 20 -5 16
-9 22 -6 37 17 9 16 18 30 20 32 2 3 19 -11 38 -29 26 -26 35 -41 32 -60 -2
-14 -2 -19 1 -11 3 12 5 12 12 0 7 -11 12 -10 29 5 15 14 19 29 18 66 -2 35 1
46 10 43 7 -3 14 -13 15 -22z m-347 9 c8 -13 -5 -13 -25 0 -13 8 -13 10 2 10
9 0 20 -4 23 -10z m1385 0 c0 -5 -4 -10 -10 -10 -5 0 -10 5 -10 10 0 6 5 10
10 10 6 0 10 -4 10 -10z m-191 -9 c7 -5 9 -11 4 -14 -4 -3 -17 1 -28 9 -21 16
0 20 24 5z m-1502 -7 c-3 -3 -12 -4 -19 -1 -8 3 -5 6 6 6 11 1 17 -2 13 -5z
m2008 -44 c13 -25 12 -29 -4 -44 -15 -13 -22 -14 -44 -3 -35 16 -35 30 0 16
40 -15 52 4 25 41 -16 21 -18 28 -7 24 9 -4 22 -19 30 -34z m-709 5 c8 -31 22
-32 26 -3 2 13 11 24 20 26 26 5 51 -24 44 -51 -3 -13 -1 -40 5 -60 15 -55 19
-97 9 -97 -5 0 -7 -7 -4 -15 4 -9 1 -15 -7 -15 -15 0 -59 92 -60 125 0 19 -1
18 -11 -2 -6 -13 -15 -23 -20 -23 -16 0 -48 20 -48 31 0 6 5 7 10 4 6 -3 10 0
10 7 0 7 -10 18 -22 23 -44 19 -30 75 18 75 17 0 25 -7 30 -25z m158 16 c6 -9
-35 -24 -43 -16 -2 3 1 5 8 5 7 0 9 5 6 10 -3 6 1 10 9 10 8 0 17 -4 20 -9z
m529 -31 c3 -14 1 -20 -6 -17 -7 3 -11 10 -9 16 1 6 -2 11 -7 11 -5 0 -11 7
-15 15 -4 12 -2 13 13 6 10 -6 21 -20 24 -31z m292 21 c3 -6 -3 -9 -14 -8 -11
0 -17 5 -15 9 7 11 22 10 29 -1z m-1201 -35 c8 -14 8 -20 -2 -23 -10 -4 -10
-8 0 -21 11 -13 10 -15 -5 -9 -10 4 -23 7 -28 7 -10 0 -12 53 -2 64 10 10 25
2 37 -18z m-879 -5 c6 -10 -24 -81 -35 -81 -12 0 -11 73 2 81 17 11 26 11 33
0z m2165 -11 c0 -5 -12 -10 -27 -10 -22 0 -25 2 -13 10 20 13 40 13 40 0z
m-310 -29 c0 -11 -4 -23 -10 -26 -5 -3 -10 -15 -10 -26 0 -28 -34 -21 -38 8
-3 22 28 63 48 63 6 0 10 -9 10 -19z m-1625 -73 c-8 -26 -8 -39 1 -89 7 -41
-9 -60 -32 -38 -10 10 -11 24 -5 52 8 35 7 38 -21 53 -16 9 -28 18 -25 21 3 2
14 0 25 -6 27 -15 29 -14 35 9 3 11 11 20 17 20 8 0 10 -8 5 -22z m1458 -3
c-3 -8 -9 -15 -14 -15 -10 0 -12 24 -3 33 11 11 24 -3 17 -18z m-1013 -5 c0
-11 14 -29 33 -42 l33 -21 -13 -50 c-7 -28 -14 -51 -15 -52 -47 -31 -52 -33
-70 -24 -13 7 -18 21 -18 49 0 32 -4 39 -22 42 -18 2 -24 11 -26 36 -2 19 1
32 8 32 7 0 9 8 5 20 -3 11 -2 20 4 20 16 0 35 -69 22 -84 -9 -10 -7 -15 8
-19 23 -6 36 28 32 81 -1 18 2 32 8 32 6 0 11 -9 11 -20z m625 10 c9 -15 -6
-60 -21 -60 -9 0 -13 11 -12 35 1 33 19 47 33 25z m493 -40 c2 -28 -1 -46 -10
-51 -21 -14 -27 -10 -21 11 3 12 0 20 -8 20 -8 0 -6 5 6 14 12 9 16 20 12 35
-3 14 -1 21 6 18 7 -2 13 -23 15 -47z m-535 10 c-3 -11 -7 -20 -9 -20 -2 0 -4
9 -4 20 0 11 4 20 9 20 5 0 7 -9 4 -20z m-1093 -20 c0 -11 -2 -20 -4 -20 -2 0
-6 9 -9 20 -3 11 -1 20 4 20 5 0 9 -9 9 -20z m724 4 c3 -9 6 -23 6 -32 0 -13
-6 -10 -25 10 -30 32 -31 38 -6 38 10 0 22 -7 25 -16z m576 -21 c0 -6 -7 -19
-16 -28 -12 -12 -19 -13 -30 -4 -20 17 -17 36 8 53 23 16 37 8 38 -21z m-311
-65 c7 -19 8 -19 24 -3 9 9 17 12 17 7 0 -6 9 -8 20 -5 11 3 17 9 14 14 -3 5
0 9 5 9 33 0 -8 -51 -42 -53 -18 -2 -27 -8 -27 -19 0 -18 -16 -23 -44 -12 -18
7 -21 46 -5 75 11 22 27 17 38 -13z m636 2 c11 -17 -5 -31 -19 -17 -14 12 -12
27 4 27 5 0 12 -4 15 -10z m-936 -55 c22 -39 12 -48 -15 -12 l-16 22 6 -27 c7
-30 -8 -39 -18 -12 -3 8 -11 12 -17 8 -8 -5 -9 -3 -4 7 9 15 37 49 41 49 1 0
11 -16 23 -35z m138 -5 c-6 -22 -14 -35 -18 -28 -8 12 9 68 21 68 4 0 2 -18
-3 -40z m-479 13 c6 -19 -25 -16 -32 3 -4 11 -1 14 11 12 9 -2 18 -9 21 -15z
m1063 7 c6 0 8 -4 5 -9 -8 -12 -46 -2 -46 11 0 6 7 7 16 4 9 -3 20 -6 25 -6z
m-1046 -29 c-3 -6 -11 -11 -16 -11 -5 0 -4 6 3 14 14 16 24 13 13 -3z m912
-23 c-3 -7 -5 -2 -5 12 0 14 2 19 5 13 2 -7 2 -19 0 -25z m193 -1 c0 -4 -6 -5
-12 -1 -8 4 -10 3 -5 -2 5 -5 14 -9 20 -9 6 0 12 -15 14 -32 5 -43 -17 -44
-54 -2 -16 18 -34 38 -40 45 -21 20 -15 27 17 20 21 -4 29 -2 24 5 -3 6 3 5
15 -3 12 -7 21 -16 21 -21z m-867 -22 c-3 -9 -8 -14 -10 -11 -3 3 -2 9 2 15 9
16 15 13 8 -4z m172 5 c3 -5 -1 -10 -10 -10 -9 0 -13 5 -10 10 3 6 8 10 10 10
2 0 7 -4 10 -10z m460 -6 c-11 -8 -26 -12 -34 -9 -7 3 -22 -2 -32 -11 -16 -14
-19 -14 -19 -3 0 26 23 39 65 39 38 -1 39 -2 20 -16z m-748 -26 c-3 -8 -6 -5
-6 6 -1 11 2 17 5 13 3 -3 4 -12 1 -19z m-45 -77 c-11 -21 -18 -42 -15 -45 9
-8 -57 -76 -73 -76 -7 0 -16 9 -19 21 -5 14 -13 19 -26 16 -11 -3 -19 0 -19 7
0 15 37 56 50 56 17 0 22 -21 9 -38 -11 -14 -11 -15 1 -4 8 6 25 13 40 13 22
2 23 2 3 6 l-22 4 21 24 c12 13 26 21 32 18 6 -3 8 -2 3 2 -7 9 23 49 31 40 2
-2 -5 -22 -16 -44z m848 11 c0 -19 -41 -51 -57 -45 -14 6 -13 9 7 25 12 10 26
15 31 12 5 -3 9 0 9 5 0 6 2 11 5 11 3 0 5 -4 5 -8z m-470 -12 c0 -14 -28 -19
-33 -6 -3 6 4 13 14 13 10 1 19 -2 19 -7z m-550 -24 c0 -3 -4 -8 -10 -11 -5
-3 -10 -1 -10 4 0 6 5 11 10 11 6 0 10 -2 10 -4z m330 -12 c0 -8 -4 -12 -10
-9 -5 3 -10 10 -10 16 0 5 5 9 10 9 6 0 10 -7 10 -16z m-350 -19 c0 -2 -22
-19 -48 -37 -27 -18 -47 -39 -45 -45 3 -7 0 -13 -5 -13 -6 0 -10 16 -9 36 1
30 4 35 21 30 11 -3 30 4 44 15 23 18 42 25 42 14z m912 -113 c9 -11 6 -12
-18 -6 -24 6 -27 5 -18 -7 11 -13 25 -79 17 -79 -2 0 -14 7 -27 15 -23 15 -24
15 -31 -22 -4 -21 -11 -44 -17 -50 -7 -9 -7 -13 1 -13 7 0 9 -4 6 -10 -3 -5
-2 -10 3 -10 5 0 7 -11 4 -25 -6 -33 -18 -32 -35 3 -24 46 -8 147 24 155 19 5
22 29 6 54 -4 7 6 19 25 30 33 19 33 19 41 -1 4 -11 13 -26 19 -34z m-231 17
c23 -22 28 -34 20 -42 -8 -8 -16 -5 -31 8 -11 10 -20 14 -20 9 0 -5 -5 -2 -10
8 -9 14 -5 48 6 48 2 0 17 -14 35 -31z m33 -2 c7 -6 6 -7 -4 -4 -8 2 -16 12
-17 23 -2 13 -1 15 4 4 3 -8 11 -19 17 -23z m-566 -25 c4 -47 -12 -57 -22 -14
-4 15 -9 35 -12 45 -5 14 -1 18 13 15 13 -2 19 -14 21 -46z m592 1 c0 -5 -5
-15 -10 -23 -8 -12 -10 -11 -10 8 0 12 5 22 10 22 6 0 10 -3 10 -7z m-66 -98
c4 -14 13 -25 21 -25 16 0 20 -27 6 -49 -13 -20 -31 -4 -31 27 0 15 -7 38 -16
50 -13 19 -13 22 -1 22 8 0 18 -11 21 -25z m-249 -35 c3 -6 -1 -7 -9 -4 -18 7
-21 14 -7 14 6 0 13 -4 16 -10z m35 -41 c0 -4 10 -17 22 -29 20 -19 21 -21 6
-37 -14 -13 -20 -14 -32 -3 -9 7 -16 18 -16 25 0 7 -7 18 -15 25 -24 20 -18
38 10 32 14 -2 25 -8 25 -13z m184 -71 c-9 -13 -31 -9 -45 9 -12 15 -12 16 4
10 12 -4 17 -1 17 10 0 14 2 14 14 -2 8 -11 12 -23 10 -27z m94 15 c-2 -9 -8
-18 -15 -20 -7 -3 -9 3 -6 16 6 25 26 28 21 4z m-94 -43 c19 -7 26 -17 26 -35
0 -24 -2 -25 -61 -25 -37 0 -58 4 -54 10 3 6 1 10 -6 10 -16 0 -1 17 33 35 30
17 32 17 62 5z m-354 -20 c0 -5 -4 -10 -10 -10 -5 0 -10 5 -10 10 0 6 5 10 10
10 6 0 10 -4 10 -10z m399 -51 c-8 -5 -23 -8 -34 -8 -16 0 -14 3 8 11 15 5 27
15 28 21 0 7 3 6 6 -2 3 -7 -1 -17 -8 -22z m51 -34 c0 -8 -2 -15 -4 -15 -2 0
-6 7 -10 15 -3 8 -1 15 4 15 6 0 10 -7 10 -15z"/>
<path d="M2410 2720 c0 -5 5 -10 10 -10 6 0 10 5 10 10 0 6 -4 10 -10 10 -5 0
-10 -4 -10 -10z"/>
<path d="M1945 2724 c10 -8 25 -14 32 -14 7 0 10 6 7 14 -3 7 -17 14 -31 14
-25 0 -26 -1 -8 -14z"/>
<path d="M1935 2700 c3 -5 8 -10 11 -10 2 0 4 5 4 10 0 6 -5 10 -11 10 -5 0
-7 -4 -4 -10z"/>
<path d="M2956 2322 c-3 -4 4 -9 15 -9 23 -2 25 3 4 10 -8 4 -16 3 -19 -1z"/>
<path d="M855 1830 c-3 -5 -1 -10 4 -10 6 0 11 5 11 10 0 6 -2 10 -4 10 -3 0
-8 -4 -11 -10z"/>
<path d="M1820 1631 c0 -5 7 -14 15 -21 12 -10 15 -10 15 3 0 8 -7 17 -15 21
-8 3 -15 2 -15 -3z"/>
<path d="M1235 1290 c3 -5 8 -10 11 -10 2 0 4 5 4 10 0 6 -5 10 -11 10 -5 0
-7 -4 -4 -10z"/>
<path d="M1810 1300 c0 -5 5 -10 10 -10 6 0 10 5 10 10 0 6 -4 10 -10 10 -5 0
-10 -4 -10 -10z"/>
<path d="M2623 3106 c3 -8 -1 -20 -9 -26 -22 -19 -17 -33 26 -75 21 -21 36
-43 33 -48 -3 -6 -2 -7 4 -4 6 4 29 -1 51 -10 34 -13 44 -14 57 -3 28 23 12
53 -65 117 -72 61 -108 79 -97 49z"/>
<path d="M1140 3008 c-35 -38 -24 -54 55 -74 22 -5 25 -3 25 19 0 25 -34 77
-50 77 -5 0 -18 -10 -30 -22z m25 -38 c3 -5 -1 -10 -10 -10 -9 0 -13 5 -10 10
3 6 8 10 10 10 2 0 7 -4 10 -10z"/>
<path d="M1261 2854 c0 -11 3 -14 6 -6 3 7 2 16 -1 19 -3 4 -6 -2 -5 -13z"/>
<path d="M1073 2813 c9 -2 25 -2 35 0 9 3 1 5 -18 5 -19 0 -27 -2 -17 -5z"/>
<path d="M1034 2708 c-4 -18 -7 -37 -5 -42 1 -5 -4 -13 -11 -18 -8 -6 -5 -7
11 -3 16 5 21 4 17 -4 -4 -6 -17 -11 -29 -12 -14 -1 -10 -4 13 -9 44 -11 56 0
58 47 2 52 -6 73 -28 73 -13 0 -21 -10 -26 -32z"/>
</g>
</svg>
