<?xml version="1.0" standalone="no"?>
<!DOCTYPE svg PUBLIC "-//W3C//DTD SVG 20010904//EN"
 "http://www.w3.org/TR/2001/REC-SVG-20010904/DTD/svg10.dtd">
<svg version="1.0" xmlns="http://www.w3.org/2000/svg"
 width="512.000000pt" height="511.000000pt" viewBox="0 0 512.000000 511.000000"
 preserveAspectRatio="xMidYMid meet">

<g transform="translate(0.000000,511.000000) scale(0.100000,-0.100000)"
fill="#000000" stroke="none">
<path d="M2225 4919 c-154 -10 -287 -27 -350 -45 -73 -20 -164 -44 -214 -54
-24 -6 -49 -14 -55 -19 -6 -5 -40 -16 -76 -25 -75 -18 -405 -178 -539 -261
-50 -31 -131 -88 -179 -127 -109 -89 -362 -345 -422 -427 -121 -165 -263 -442
-337 -656 l-48 -140 0 -455 c0 -506 -8 -436 77 -694 56 -172 93 -256 167 -381
159 -271 419 -563 671 -756 163 -125 462 -299 512 -299 11 0 54 -20 97 -45
116 -67 222 -113 298 -131 37 -8 91 -23 118 -33 137 -50 315 -71 595 -71 321
1 689 33 786 70 28 11 112 25 256 44 145 20 292 95 343 177 15 23 50 54 87 77
68 41 187 132 263 200 216 194 365 364 507 580 61 94 186 349 221 452 90 265
125 711 77 981 -53 297 -159 610 -250 739 -10 14 -32 52 -50 85 -77 143 -299
395 -508 578 -131 114 -315 252 -366 275 -21 9 -89 43 -150 74 -62 31 -152 73
-202 93 -108 44 -330 115 -360 115 -12 0 -51 9 -86 20 -184 58 -538 82 -883
59z m-99 -49 c7 -7 19 -8 37 -1 22 9 33 6 63 -14 28 -19 40 -22 50 -14 7 6 22
8 34 4 14 -4 20 -2 20 8 0 22 21 26 76 15 27 -5 68 -7 92 -4 31 4 44 2 48 -8
4 -10 13 -12 33 -6 42 12 106 5 151 -17 l40 -21 15 21 c12 17 17 18 30 7 12
-10 15 -10 15 4 0 28 26 17 43 -19 18 -38 40 -44 67 -20 15 14 19 13 35 -5
l18 -20 24 22 c16 15 26 19 31 11 4 -6 16 -12 27 -14 11 -2 24 -14 30 -27 8
-18 15 -21 37 -16 16 3 28 1 28 -4 0 -5 8 -13 18 -16 23 -8 61 -31 74 -44 7
-7 16 -7 29 1 21 13 56 -2 52 -22 -2 -6 10 -11 26 -11 17 0 33 -4 36 -10 3 -5
29 -10 56 -10 33 0 51 -5 55 -14 3 -8 21 -17 40 -21 19 -3 38 -13 41 -21 3 -7
13 -14 22 -14 30 0 33 -13 9 -33 l-23 -19 25 7 c69 18 68 19 63 -10 -5 -24 -3
-25 20 -20 25 7 52 -15 29 -23 -25 -8 -10 -30 25 -37 56 -10 76 -23 70 -47 -4
-14 0 -22 14 -25 10 -3 22 -16 25 -29 5 -19 11 -22 35 -17 21 4 29 2 29 -8 0
-8 15 -20 33 -27 45 -19 85 -40 136 -74 24 -16 56 -30 70 -31 18 -2 26 -9 27
-22 2 -38 4 -39 20 -17 21 31 38 27 57 -13 9 -19 22 -35 28 -35 6 0 9 -9 6
-20 -4 -16 0 -20 19 -20 19 0 24 -5 24 -25 0 -22 4 -25 39 -25 48 0 111 -25
111 -44 0 -8 9 -18 21 -21 15 -5 18 -10 9 -20 -6 -8 -21 -15 -32 -17 -32 -5
-35 -28 -4 -28 14 0 26 -4 26 -9 0 -5 9 -11 20 -14 17 -4 19 -11 14 -31 -3
-15 -2 -32 4 -39 6 -6 12 -23 14 -37 2 -16 11 -26 27 -30 39 -9 36 -28 -8 -41
-43 -13 -51 -28 -26 -49 13 -11 14 -10 9 4 -4 12 0 16 15 16 29 0 89 -59 95
-91 2 -14 14 -45 26 -68 15 -31 18 -46 11 -55 -15 -18 2 -55 77 -170 35 -54
40 -83 18 -92 -18 -7 -10 -32 20 -60 22 -21 23 -64 3 -90 -11 -14 7 -31 39
-36 l22 -3 -25 -37 -26 -38 25 0 c33 0 41 -30 26 -86 -10 -33 -21 -49 -49 -66
-58 -35 -78 -78 -30 -63 22 7 49 -10 49 -31 0 -8 -9 -14 -20 -14 -30 0 -26
-44 7 -74 24 -23 25 -26 9 -32 -15 -6 -17 -15 -12 -59 6 -61 1 -70 -31 -50
-21 14 -23 14 -23 0 0 -8 -9 -15 -21 -15 -11 0 -17 -4 -14 -10 3 -5 14 -10 24
-10 23 0 48 -27 56 -61 5 -21 2 -27 -14 -32 -16 -4 -21 -13 -21 -37 0 -24 -4
-31 -14 -27 -23 9 -28 -21 -6 -33 25 -14 25 -30 -1 -80 -32 -61 -76 -52 -58
12 9 32 2 36 -17 11 -21 -29 -16 -57 16 -88 30 -28 40 -75 22 -101 -14 -23
-94 -56 -105 -45 -14 14 -27 14 -27 1 0 -5 7 -10 15 -10 23 0 30 -29 11 -43
-9 -7 -40 -12 -70 -11 l-53 1 33 -44 c37 -48 44 -92 19 -113 -8 -7 -15 -18
-15 -25 0 -16 -47 -48 -60 -40 -4 3 -14 -21 -21 -52 -8 -34 -23 -68 -36 -81
-13 -13 -23 -29 -23 -36 0 -20 -11 -26 -31 -15 -17 8 -19 6 -19 -21 0 -30 -21
-42 -35 -20 -4 6 -16 8 -27 5 -14 -5 -21 -1 -25 14 -5 21 -14 26 -26 14 -4 -3
-1 -13 7 -22 16 -18 32 -71 21 -71 -3 0 -15 5 -26 10 -16 9 -19 7 -19 -10 0
-17 -7 -20 -42 -21 -24 -1 -46 -1 -50 0 -15 2 -8 -17 8 -23 9 -3 12 -11 8 -18
-5 -8 -2 -9 9 -5 11 4 17 1 17 -8 0 -8 -6 -15 -14 -15 -7 0 -17 -15 -23 -32
-6 -22 -15 -33 -26 -32 -9 1 -26 -13 -37 -31 -26 -43 -135 -102 -155 -85 -11
9 -22 5 -50 -17 -19 -15 -35 -33 -35 -39 0 -6 -7 -18 -16 -25 -14 -12 -20 -9
-41 16 -22 27 -24 28 -18 7 10 -36 -2 -72 -25 -72 -11 0 -20 4 -20 10 0 13
-57 70 -70 70 -13 0 -13 17 0 25 14 9 -7 35 -26 35 -10 0 -14 -14 -14 -51 0
-52 -15 -94 -30 -84 -5 3 -11 1 -14 -4 -12 -18 12 -21 49 -5 41 17 86 16 92
-3 6 -17 -77 -62 -130 -69 -43 -6 -45 -5 -40 15 3 13 1 21 -7 21 -7 0 -19 8
-27 18 -8 9 -12 12 -9 5 7 -13 -13 -63 -25 -63 -4 0 -13 8 -18 18 -8 14 -10
10 -11 -20 0 -27 -4 -38 -15 -38 -19 0 -54 39 -61 67 -4 13 -10 23 -15 23 -6
0 -6 -7 0 -18 5 -9 12 -38 16 -64 8 -52 4 -55 -41 -38 -16 6 -30 7 -33 2 -3
-5 -17 -15 -31 -22 -21 -10 -23 -10 -13 1 11 11 8 15 -15 25 l-27 12 28 1 c29
1 34 10 15 29 -23 23 -45 14 -52 -23 -8 -41 -25 -54 -41 -32 -7 10 -20 14 -33
10 -12 -3 -33 2 -47 11 l-25 16 3 -47 c2 -45 1 -48 -23 -48 -14 0 -38 -8 -53
-17 -48 -32 -99 -11 -67 27 10 12 9 15 -4 15 -9 0 -16 -6 -16 -14 0 -7 -7 -19
-16 -27 -13 -10 -19 -10 -36 0 -18 11 -23 11 -37 -6 -24 -30 -75 -46 -139 -44
-45 0 -61 5 -74 21 -24 30 -13 50 29 50 23 0 33 4 30 13 -2 6 -13 11 -23 10
-10 -1 -22 3 -25 9 -14 22 -39 -1 -39 -36 0 -49 -9 -66 -35 -66 -16 0 -25 7
-29 25 -7 29 -18 32 -36 10 -22 -26 -30 -16 -30 36 l0 51 -19 -23 c-16 -20
-21 -21 -35 -10 -14 12 -16 10 -16 -14 0 -45 -51 -87 -63 -52 -3 9 -7 9 -20
-1 -14 -12 -19 -12 -31 1 -8 8 -39 23 -67 33 -47 17 -54 24 -72 67 -19 45 -21
47 -38 31 -26 -23 -24 -43 6 -54 37 -14 31 -31 -7 -23 -18 3 -34 10 -36 15 -2
4 -35 8 -73 8 -77 0 -96 15 -64 50 16 18 17 20 2 20 -10 0 -17 -7 -17 -16 0
-14 -8 -15 -57 -9 -75 9 -86 14 -80 36 6 24 5 24 -35 -1 -43 -26 -58 -25 -58
3 0 18 -5 23 -22 23 -21 -1 -23 3 -22 49 1 28 0 44 -3 38 -3 -7 -11 -13 -19
-13 -11 0 -11 -6 -3 -27 6 -16 10 -30 10 -33 1 -19 -135 -27 -147 -8 -9 15 50
68 76 68 11 0 20 5 20 10 0 13 -11 13 -65 -1 -25 -6 -53 -8 -62 -3 -10 4 -29
8 -43 8 -17 1 -25 6 -24 19 0 9 1 30 2 46 1 15 14 46 28 67 17 25 20 33 8 22
-11 -9 -23 -17 -29 -17 -5 -1 -10 -4 -11 -8 -3 -33 -18 -84 -25 -89 -11 -6
-50 56 -42 69 3 5 -7 6 -24 3 -38 -9 -103 20 -103 45 0 10 11 20 28 24 l27 7
-30 11 c-37 12 -42 16 -30 25 10 7 37 73 32 79 -2 1 -26 -21 -55 -49 -44 -43
-54 -49 -67 -38 -31 26 -38 50 -19 71 18 20 13 34 -14 34 -12 0 -18 10 -20 36
-3 35 -2 36 27 31 18 -2 31 -10 31 -19 0 -8 4 -12 9 -9 5 3 7 16 4 27 -5 17 2
29 28 50 31 26 32 28 12 29 -13 0 -23 -4 -23 -9 0 -14 -37 -20 -51 -7 -9 8
-10 7 -6 -7 4 -10 3 -15 -2 -12 -5 3 -16 -3 -23 -12 -21 -29 -97 -93 -109 -93
-8 0 -9 13 -5 40 6 41 0 49 -23 28 -11 -11 -12 -10 -6 1 6 11 4 13 -8 8 -11
-4 -17 -1 -17 8 0 7 -12 23 -26 34 -28 22 -29 57 -2 55 9 -1 19 4 21 11 4 8
-3 10 -19 7 -24 -4 -28 3 -25 40 3 26 -35 23 -42 -2 -7 -28 -35 -25 -43 4 -7
29 1 46 22 46 8 0 24 9 36 20 18 16 19 20 5 20 -8 0 -19 -5 -23 -11 -3 -6 -20
-9 -36 -7 -19 3 -32 0 -35 -9 -10 -25 -31 -13 -43 23 -8 22 -10 64 -7 102 5
60 8 69 39 94 51 42 6 37 -56 -7 -73 -52 -130 -44 -87 11 12 15 21 32 21 40 0
7 12 26 26 43 31 38 17 40 -51 10 -66 -29 -122 -10 -83 29 8 8 8 15 -1 25 -9
12 -7 22 9 50 l21 35 -33 16 c-28 15 -33 15 -40 1 -10 -17 -38 -21 -38 -5 0 5
-13 31 -30 57 -37 58 -40 93 -7 93 21 1 21 1 -5 21 -16 11 -28 25 -28 30 0 13
44 11 58 -3 8 -8 15 -8 27 2 23 19 15 54 -12 58 -27 4 -29 20 -8 48 18 24 19
35 2 33 -32 -4 -49 2 -44 15 4 11 -3 13 -34 9 -33 -5 -39 -3 -39 13 0 10 12
28 27 40 l28 22 -22 18 c-11 11 -29 31 -38 47 -23 37 -2 36 36 -2 16 -16 29
-26 29 -23 0 4 4 1 9 -6 12 -19 56 -5 69 21 15 30 21 77 11 77 -5 0 -9 -7 -9
-15 0 -10 -10 -15 -26 -15 -21 0 -24 -3 -15 -13 14 -17 4 -27 -25 -27 -25 0
-64 43 -64 70 0 11 -10 20 -25 24 -15 4 -25 14 -25 25 0 26 35 54 58 46 30 -9
35 10 7 25 -14 7 -25 19 -25 26 0 7 -8 26 -17 43 -14 23 -15 33 -6 42 9 9 18
8 38 -5 l26 -17 -3 28 c-3 26 -6 28 -45 25 -50 -3 -62 10 -28 32 14 9 25 22
25 29 0 6 7 25 15 41 21 40 4 58 -28 28 -13 -12 -26 -22 -30 -22 -13 0 -6 45
11 80 14 26 23 34 41 32 19 -2 21 1 15 20 -3 13 -13 31 -21 40 -14 15 -13 18
8 23 13 3 29 17 35 30 10 20 8 25 -12 36 -26 13 -30 24 -14 34 8 5 7 11 -1 21
-10 12 -8 21 10 44 21 30 21 30 1 30 -24 0 -25 4 -3 41 25 42 63 50 63 13 0
-8 5 -14 11 -14 6 0 9 6 6 14 -3 7 0 19 6 25 8 8 5 11 -11 11 -15 0 -22 6 -22
18 0 26 10 33 30 22 13 -7 27 -5 47 6 l28 15 -33 -6 c-32 -7 -94 13 -106 34
-11 18 22 32 59 25 36 -6 37 -6 26 15 -14 26 -7 41 20 41 10 0 19 5 19 11 0 7
-11 8 -30 4 -36 -8 -38 4 -10 51 13 21 32 35 51 39 27 6 30 10 24 36 -5 21 -2
31 9 35 9 3 16 16 16 28 0 11 5 28 10 36 7 12 13 11 36 -10 l27 -25 -7 30 c-4
17 -17 40 -28 52 -19 21 -19 21 0 27 14 5 18 13 15 30 -4 17 5 33 33 60 20 20
45 36 54 36 21 0 60 36 60 55 0 8 11 17 25 21 17 4 24 12 22 28 -2 18 2 21 31
18 40 -4 42 13 2 27 -16 5 -30 14 -30 20 0 11 48 28 108 37 40 6 42 8 27 24
-15 17 -14 19 19 30 20 6 54 27 76 45 57 48 108 77 120 70 6 -4 8 -10 5 -15
-3 -5 -1 -11 4 -15 6 -3 23 8 38 26 15 17 38 35 51 40 13 5 22 17 22 29 0 11
4 20 9 20 5 0 19 16 32 35 26 38 72 50 67 18 -2 -10 3 -18 10 -17 45 4 43 2
27 28 -20 30 -7 39 35 24 28 -9 35 -8 45 5 7 10 21 17 32 17 11 0 25 11 31 25
6 14 17 25 23 25 6 0 20 -11 31 -25 18 -24 39 -34 37 -17 -5 27 2 33 31 27 23
-5 30 -3 30 9 0 11 9 16 28 16 16 0 32 8 40 20 22 35 90 63 138 55 56 -8 82 6
86 48 3 29 6 32 33 29 17 -1 37 -11 45 -21 15 -17 18 -16 55 15 41 36 55 40
71 24z m-1871 -1660 c-3 -5 -10 -10 -16 -10 -5 0 -9 5 -9 10 0 6 7 10 16 10 8
0 12 -4 9 -10z m4685 -215 c0 -8 -4 -15 -9 -15 -5 0 -14 7 -21 15 -10 13 -9
15 9 15 12 0 21 -6 21 -15z m-52 -283 c2 -7 -3 -12 -10 -12 -8 0 -15 7 -15 15
0 18 19 15 25 -3z m-213 -882 c-3 -5 -10 -10 -16 -10 -5 0 -9 5 -9 10 0 6 7
10 16 10 8 0 12 -4 9 -10z m-2255 -1120 c0 -5 -5 -10 -11 -10 -5 0 -7 5 -4 10
3 6 8 10 11 10 2 0 4 -4 4 -10z"/>
<path d="M1240 4535 c-11 -13 -11 -19 3 -32 15 -15 17 -15 22 0 4 9 3 23 -2
32 -9 15 -11 15 -23 0z"/>
<path d="M1046 4392 c-2 -4 -1 -14 4 -21 10 -17 31 -5 23 14 -6 16 -19 20 -27
7z"/>
<path d="M832 4209 c2 -7 10 -15 17 -17 8 -3 12 1 9 9 -2 7 -10 15 -17 17 -8
3 -12 -1 -9 -9z"/>
<path d="M1860 4180 c0 -5 5 -10 11 -10 5 0 7 5 4 10 -3 6 -8 10 -11 10 -2 0
-4 -4 -4 -10z"/>
<path d="M3090 3901 c0 -6 4 -13 10 -16 6 -3 7 1 4 9 -7 18 -14 21 -14 7z"/>
<path d="M4420 3766 c0 -2 7 -6 15 -10 8 -3 15 -1 15 4 0 6 -7 10 -15 10 -8 0
-15 -2 -15 -4z"/>
<path d="M2830 3715 c0 -10 29 -24 34 -17 3 6 -3 12 -14 15 -11 3 -20 4 -20 2z"/>
<path d="M2334 3695 c-18 -14 -18 -14 4 -8 12 3 22 9 22 14 0 12 -3 11 -26 -6z"/>
<path d="M2555 3650 c-3 -5 1 -10 10 -10 9 0 13 5 10 10 -3 6 -8 10 -10 10 -2
0 -7 -4 -10 -10z"/>
<path d="M2655 3630 c3 -5 8 -10 11 -10 2 0 4 5 4 10 0 6 -5 10 -11 10 -5 0
-7 -4 -4 -10z"/>
<path d="M2585 3590 c-3 -5 1 -10 9 -10 9 0 16 5 16 10 0 6 -4 10 -9 10 -6 0
-13 -4 -16 -10z"/>
<path d="M2630 3416 c0 -2 8 -10 18 -17 15 -13 16 -12 3 4 -13 16 -21 21 -21
13z"/>
<path d="M2675 3400 c-3 -5 -1 -10 4 -10 6 0 11 5 11 10 0 6 -2 10 -4 10 -3 0
-8 -4 -11 -10z"/>
<path d="M1924 3374 c3 -9 6 -18 6 -20 0 -3 5 -2 10 1 16 10 12 35 -6 35 -11
0 -14 -5 -10 -16z"/>
<path d="M2176 3344 c-10 -38 0 -41 12 -5 6 17 7 31 3 31 -5 0 -12 -12 -15
-26z"/>
<path d="M1530 3354 c0 -17 17 -36 24 -26 3 5 -1 15 -9 22 -8 7 -15 9 -15 4z"/>
<path d="M1995 3332 c-4 -10 0 -12 11 -8 8 3 18 6 20 6 2 0 4 4 4 8 0 15 -29
9 -35 -6z"/>
<path d="M1420 3300 c8 -5 20 -10 25 -10 6 0 3 5 -5 10 -8 5 -19 10 -25 10 -5
0 -3 -5 5 -10z"/>
<path d="M2360 3280 c-8 -5 -12 -12 -9 -15 4 -3 12 1 19 10 14 17 11 19 -10 5z"/>
<path d="M1065 3270 c3 -5 8 -10 11 -10 2 0 4 5 4 10 0 6 -5 10 -11 10 -5 0
-7 -4 -4 -10z"/>
<path d="M1450 3264 c0 -8 5 -12 10 -9 6 4 8 11 5 16 -9 14 -15 11 -15 -7z"/>
<path d="M1331 3228 c-10 -17 -9 -22 6 -34 10 -7 23 -13 28 -13 6 -1 -1 8 -15
19 -20 15 -21 20 -8 20 22 0 32 16 15 23 -8 3 -19 -4 -26 -15z"/>
<path d="M2025 3240 c27 -12 35 -12 35 0 0 6 -12 10 -27 9 -25 0 -26 -1 -8 -9z"/>
<path d="M1005 3220 c-3 -5 1 -10 9 -10 9 0 16 5 16 10 0 6 -4 10 -9 10 -6 0
-13 -4 -16 -10z"/>
<path d="M1118 3223 c7 -3 16 -2 19 1 4 3 -2 6 -13 5 -11 0 -14 -3 -6 -6z"/>
<path d="M4760 3174 c0 -23 1 -24 16 -10 8 9 12 20 9 26 -12 19 -25 10 -25
-16z"/>
<path d="M1235 3160 c-3 -5 1 -10 9 -10 8 0 18 5 21 10 3 6 -1 10 -9 10 -8 0
-18 -4 -21 -10z"/>
<path d="M4488 3143 c7 -3 16 -2 19 1 4 3 -2 6 -13 5 -11 0 -14 -3 -6 -6z"/>
<path d="M3116 3107 c3 -10 9 -15 12 -12 3 3 0 11 -7 18 -10 9 -11 8 -5 -6z"/>
<path d="M1605 3091 c-3 -5 -1 -12 5 -16 5 -3 10 1 10 9 0 18 -6 21 -15 7z"/>
<path d="M3550 3092 c0 -12 19 -26 26 -19 2 2 -2 10 -11 17 -9 8 -15 8 -15 2z"/>
<path d="M1555 3080 c-3 -5 -1 -10 4 -10 6 0 11 5 11 10 0 6 -2 10 -4 10 -3 0
-8 -4 -11 -10z"/>
<path d="M770 3068 c0 -18 18 -34 28 -24 3 4 -2 14 -11 23 -16 16 -17 16 -17
1z"/>
<path d="M1490 3045 c-8 -9 -8 -15 -2 -15 12 0 26 19 19 26 -2 2 -10 -2 -17
-11z"/>
<path d="M2230 3049 c0 -5 5 -7 10 -4 6 3 10 8 10 11 0 2 -4 4 -10 4 -5 0 -10
-5 -10 -11z"/>
<path d="M2305 3019 c-11 -17 1 -21 15 -4 8 9 8 15 2 15 -6 0 -14 -5 -17 -11z"/>
<path d="M2366 2985 c-6 -17 9 -29 24 -20 14 9 12 22 -4 28 -8 3 -17 -1 -20
-8z"/>
<path d="M280 2919 c0 -5 5 -7 10 -4 6 3 10 8 10 11 0 2 -4 4 -10 4 -5 0 -10
-5 -10 -11z"/>
<path d="M525 2920 c3 -5 8 -10 11 -10 2 0 4 5 4 10 0 6 -5 10 -11 10 -5 0 -7
-4 -4 -10z"/>
<path d="M4770 2877 c-22 -9 -23 -11 -6 -14 10 -3 23 0 29 6 16 16 5 20 -23 8z"/>
<path d="M3550 2834 c0 -9 5 -14 12 -12 18 6 21 28 4 28 -9 0 -16 -7 -16 -16z"/>
<path d="M350 2800 c0 -5 7 -10 15 -10 8 0 15 5 15 10 0 6 -7 10 -15 10 -8 0
-15 -4 -15 -10z"/>
<path d="M4395 2780 c-3 -6 1 -7 9 -4 18 7 21 14 7 14 -6 0 -13 -4 -16 -10z"/>
<path d="M1755 2770 c3 -5 8 -10 11 -10 2 0 4 5 4 10 0 6 -5 10 -11 10 -5 0
-7 -4 -4 -10z"/>
<path d="M2025 2761 c-3 -5 -1 -12 5 -16 5 -3 10 1 10 9 0 18 -6 21 -15 7z"/>
<path d="M2106 2742 c-2 -4 -1 -14 4 -22 7 -11 11 -12 25 0 13 10 13 15 3 21
-17 11 -26 11 -32 1z"/>
<path d="M2805 2728 c4 -10 14 -18 23 -18 12 0 13 -3 4 -12 -7 -7 -12 -19 -12
-27 0 -11 4 -10 15 5 19 25 20 58 1 51 -7 -3 -19 0 -25 6 -9 9 -11 8 -6 -5z"/>
<path d="M1340 2700 c-22 -6 -23 -8 -7 -15 11 -4 23 -3 30 4 15 15 7 19 -23
11z"/>
<path d="M2030 2686 c0 -9 5 -16 10 -16 6 0 10 4 10 9 0 6 -4 13 -10 16 -5 3
-10 -1 -10 -9z"/>
<path d="M1826 2675 c-11 -8 -16 -18 -11 -22 4 -5 10 -2 12 5 3 6 11 12 19 12
8 0 14 5 14 10 0 14 -11 12 -34 -5z"/>
<path d="M325 2660 c3 -5 10 -10 16 -10 5 0 9 5 9 10 0 6 -7 10 -16 10 -8 0
-12 -4 -9 -10z"/>
<path d="M1550 2660 c0 -5 7 -10 16 -10 8 0 12 5 9 10 -3 6 -10 10 -16 10 -5
0 -9 -4 -9 -10z"/>
<path d="M2915 2658 c-4 -10 -11 -15 -16 -12 -5 3 -9 1 -9 -5 0 -5 4 -12 9
-15 12 -8 34 20 28 36 -3 9 -7 8 -12 -4z"/>
<path d="M1933 2640 c14 -11 29 -20 34 -20 10 1 -39 39 -51 40 -5 0 3 -9 17
-20z"/>
<path d="M2610 2656 c0 -2 6 -9 14 -15 10 -9 15 -8 20 4 4 10 -1 15 -14 15
-11 0 -20 -2 -20 -4z"/>
<path d="M468 2643 c7 -3 16 -2 19 1 4 3 -2 6 -13 5 -11 0 -14 -3 -6 -6z"/>
<path d="M1660 2630 c-9 -16 -8 -18 5 -14 8 4 15 12 15 20 0 20 -7 17 -20 -6z"/>
<path d="M2709 2628 c8 -23 25 -25 29 -5 2 8 -6 17 -17 20 -16 4 -18 1 -12
-15z"/>
<path d="M4615 2630 c-7 -11 18 -24 35 -18 6 2 1 9 -9 15 -13 8 -22 9 -26 3z"/>
<path d="M3520 2583 c0 -12 5 -25 10 -28 13 -8 13 15 0 35 -8 12 -10 11 -10
-7z"/>
<path d="M2550 2581 c0 -6 5 -13 10 -16 6 -3 10 1 10 9 0 9 -4 16 -10 16 -5 0
-10 -4 -10 -9z"/>
<path d="M3888 2583 c6 -2 18 -2 25 0 6 3 1 5 -13 5 -14 0 -19 -2 -12 -5z"/>
<path d="M1067 2573 c-4 -3 -7 -15 -7 -25 0 -10 -5 -18 -12 -18 -6 0 -8 -3 -5
-6 9 -9 38 16 31 27 -3 5 2 6 10 3 22 -8 42 6 25 17 -17 10 -33 11 -42 2z"/>
<path d="M455 2560 c-3 -5 1 -10 9 -10 8 0 18 5 21 10 3 6 -1 10 -9 10 -8 0
-18 -4 -21 -10z"/>
<path d="M1436 2548 c10 -14 21 -24 23 -22 3 3 -6 15 -18 27 l-24 22 19 -27z"/>
<path d="M1910 2555 c0 -9 6 -12 15 -9 8 4 12 10 9 15 -8 14 -24 10 -24 -6z"/>
<path d="M2426 2535 c9 -14 21 -22 27 -18 8 5 7 8 -1 11 -7 2 -9 9 -6 14 4 7
2 8 -4 4 -7 -4 -12 -2 -12 3 0 6 -5 11 -10 11 -6 0 -3 -11 6 -25z"/>
<path d="M2460 2554 c0 -3 5 -15 11 -26 9 -16 13 -18 20 -7 4 8 3 19 -3 26
-11 13 -28 18 -28 7z"/>
<path d="M1566 2534 c-4 -9 -4 -19 -1 -22 7 -8 35 19 29 29 -8 14 -21 11 -28
-7z"/>
<path d="M3847 2533 c-4 -3 -7 -11 -7 -17 0 -6 5 -5 12 2 6 6 9 14 7 17 -3 3
-9 2 -12 -2z"/>
<path d="M4485 2530 c-3 -5 1 -10 9 -10 9 0 16 5 16 10 0 6 -4 10 -9 10 -6 0
-13 -4 -16 -10z"/>
<path d="M4762 2528 c-9 -9 -7 -17 10 -35 30 -32 37 -29 24 12 -12 38 -16 41
-34 23z"/>
<path d="M562 2510 c7 -10 14 -18 15 -16 6 6 -9 36 -18 36 -5 0 -4 -9 3 -20z"/>
<path d="M4583 2513 c-18 -7 -16 -23 2 -23 8 0 15 7 15 15 0 8 -1 15 -2 14 -2
0 -9 -3 -15 -6z"/>
<path d="M1706 2496 c10 -8 21 -12 24 -10 5 6 -21 24 -34 24 -6 0 -1 -6 10
-14z"/>
<path d="M2565 2490 c-8 -13 -1 -24 14 -19 6 3 7 10 2 18 -6 10 -10 10 -16 1z"/>
<path d="M1097 2471 c-14 -15 -15 -20 -4 -24 15 -6 50 27 40 37 -9 9 -16 6
-36 -13z"/>
<path d="M3360 2480 c0 -5 7 -10 16 -10 8 0 12 5 9 10 -3 6 -10 10 -16 10 -5
0 -9 -4 -9 -10z"/>
<path d="M362 2444 c-32 -22 -27 -30 18 -26 24 3 40 9 40 17 0 7 6 16 13 18 6
3 -2 6 -18 6 -17 1 -41 -6 -53 -15z"/>
<path d="M4732 2428 c2 -6 10 -14 16 -16 7 -2 10 2 6 12 -7 18 -28 22 -22 4z"/>
<path d="M4185 2410 c-10 -11 -13 -20 -8 -20 13 0 38 29 31 35 -3 3 -13 -4
-23 -15z"/>
<path d="M635 2400 c3 -5 13 -10 21 -10 8 0 12 5 9 10 -3 6 -13 10 -21 10 -8
0 -12 -4 -9 -10z"/>
<path d="M430 2380 c10 -19 40 -28 40 -12 0 13 -23 32 -37 32 -11 0 -11 -5 -3
-20z"/>
<path d="M1091 2384 c0 -11 3 -14 6 -6 3 7 2 16 -1 19 -3 4 -6 -2 -5 -13z"/>
<path d="M1186 2385 c4 -8 8 -15 10 -15 2 0 4 7 4 15 0 8 -4 15 -10 15 -5 0
-7 -7 -4 -15z"/>
<path d="M2395 2370 c-18 -19 -17 -20 3 -20 15 0 22 6 22 20 0 11 -2 20 -3 20
-2 0 -12 -9 -22 -20z"/>
<path d="M4355 2360 c4 -6 11 -8 16 -5 14 9 11 15 -7 15 -8 0 -12 -5 -9 -10z"/>
<path d="M2577 2336 c-4 -10 -13 -16 -21 -13 -9 4 -16 -3 -19 -19 -2 -15 0
-24 8 -24 19 0 47 37 43 57 -3 17 -4 17 -11 -1z"/>
<path d="M464 2311 c-2 -2 -4 -13 -4 -23 0 -23 15 -22 59 1 l35 19 -43 4 c-23
2 -44 2 -47 -1z"/>
<path d="M3225 2310 c-3 -6 1 -7 9 -4 18 7 21 14 7 14 -6 0 -13 -4 -16 -10z"/>
<path d="M1477 2297 c-11 -29 -9 -43 4 -30 6 6 9 19 7 29 -3 18 -4 18 -11 1z"/>
<path d="M2312 2279 c-7 -11 -11 -24 -8 -27 10 -9 28 15 24 32 -2 14 -5 13
-16 -5z"/>
<path d="M3183 2286 c-6 -8 -9 -16 -6 -20 9 -9 44 14 38 25 -8 12 -18 11 -32
-5z"/>
<path d="M3095 2279 c-4 -6 -13 -8 -21 -5 -10 4 -14 -2 -14 -19 0 -33 11 -31
32 5 16 28 18 44 3 19z"/>
<path d="M3760 2270 c0 -5 5 -10 11 -10 5 0 7 5 4 10 -3 6 -8 10 -11 10 -2 0
-4 -4 -4 -10z"/>
<path d="M4675 2260 c3 -5 13 -10 21 -10 8 0 12 5 9 10 -3 6 -13 10 -21 10 -8
0 -12 -4 -9 -10z"/>
<path d="M4391 2226 c-8 -9 -11 -19 -7 -23 9 -9 29 13 24 27 -2 8 -8 7 -17 -4z"/>
<path d="M2800 2205 c-7 -9 -8 -15 -2 -15 5 0 12 7 16 15 3 8 4 15 2 15 -2 0
-9 -7 -16 -15z"/>
<path d="M1568 2193 c7 -3 16 -2 19 1 4 3 -2 6 -13 5 -11 0 -14 -3 -6 -6z"/>
<path d="M3000 2160 c0 -5 5 -10 10 -10 6 0 10 5 10 10 0 6 -4 10 -10 10 -5 0
-10 -4 -10 -10z"/>
<path d="M3660 2150 c0 -19 3 -21 12 -12 9 9 9 15 0 24 -9 9 -12 7 -12 -12z"/>
<path d="M2960 2139 c0 -11 4 -18 10 -14 5 3 7 12 3 20 -7 21 -13 19 -13 -6z"/>
<path d="M2665 2140 c-3 -5 -2 -10 4 -10 5 0 13 5 16 10 3 6 2 10 -4 10 -5 0
-13 -4 -16 -10z"/>
<path d="M470 2130 c-8 -5 -12 -12 -9 -15 4 -3 12 1 19 10 14 17 11 19 -10 5z"/>
<path d="M4090 2129 c0 -5 5 -7 10 -4 6 3 10 8 10 11 0 2 -4 4 -10 4 -5 0 -10
-5 -10 -11z"/>
<path d="M2995 2120 c-3 -6 1 -7 9 -4 18 7 21 14 7 14 -6 0 -13 -4 -16 -10z"/>
<path d="M2415 2100 c-3 -5 -2 -10 4 -10 5 0 13 5 16 10 3 6 2 10 -4 10 -5 0
-13 -4 -16 -10z"/>
<path d="M2247 2059 c-3 -13 -1 -19 6 -16 15 5 22 37 9 37 -5 0 -12 -9 -15
-21z"/>
<path d="M560 2049 c0 -5 5 -7 10 -4 6 3 10 8 10 11 0 2 -4 4 -10 4 -5 0 -10
-5 -10 -11z"/>
<path d="M3080 2049 c0 -5 9 -9 20 -9 11 0 20 2 20 4 0 2 -9 6 -20 9 -11 3
-20 1 -20 -4z"/>
<path d="M2741 2014 c0 -11 3 -14 6 -6 3 7 2 16 -1 19 -3 4 -6 -2 -5 -13z"/>
<path d="M4550 1994 c0 -8 5 -12 10 -9 6 3 10 10 10 16 0 5 -4 9 -10 9 -5 0
-10 -7 -10 -16z"/>
<path d="M880 1981 c0 -5 5 -13 10 -16 6 -3 10 -2 10 4 0 5 -4 13 -10 16 -5 3
-10 2 -10 -4z"/>
<path d="M4680 1983 c0 -5 5 -14 11 -20 13 -13 51 -5 46 11 -4 13 -57 21 -57
9z"/>
<path d="M3145 1959 c-4 -6 -5 -12 -2 -15 2 -3 7 2 10 11 7 17 1 20 -8 4z"/>
<path d="M3085 1950 c-3 -5 1 -10 9 -10 9 0 16 5 16 10 0 6 -4 10 -9 10 -6 0
-13 -4 -16 -10z"/>
<path d="M3870 1951 c0 -6 5 -13 10 -16 6 -3 10 1 10 9 0 9 -4 16 -10 16 -5 0
-10 -4 -10 -9z"/>
<path d="M4400 1940 c0 -5 5 -10 11 -10 5 0 7 5 4 10 -3 6 -8 10 -11 10 -2 0
-4 -4 -4 -10z"/>
<path d="M3301 1926 c-11 -14 -11 -16 3 -16 9 0 29 -11 44 -25 28 -27 42 -31
42 -15 0 6 -7 10 -15 10 -8 0 -15 7 -15 15 0 8 -5 15 -11 15 -7 0 -17 7 -23
16 -11 14 -13 14 -25 0z"/>
<path d="M976 1914 c-9 -8 -16 -19 -16 -24 0 -12 37 -19 37 -6 0 6 4 19 8 29
9 21 -8 22 -29 1z"/>
<path d="M2311 1917 c2 -1 13 -9 24 -17 19 -14 19 -14 6 3 -7 9 -18 17 -24 17
-6 0 -8 -1 -6 -3z"/>
<path d="M2796 1904 c-9 -23 -2 -28 13 -10 7 8 8 17 3 20 -6 3 -13 -1 -16 -10z"/>
<path d="M3406 1904 c-8 -21 -4 -25 14 -14 11 7 12 12 4 20 -8 8 -13 7 -18 -6z"/>
<path d="M4144 1874 c0 -24 0 -44 1 -44 2 0 10 11 18 24 15 22 15 26 -1 44
-16 19 -17 18 -18 -24z"/>
<path d="M3840 1903 c1 -18 18 -35 24 -24 4 6 4 16 1 21 -7 12 -25 13 -25 3z"/>
<path d="M2150 1885 c-7 -8 -8 -15 -2 -15 5 0 15 7 22 15 7 8 8 15 2 15 -5 0
-15 -7 -22 -15z"/>
<path d="M2659 1883 c-13 -16 -12 -17 4 -4 9 7 17 15 17 17 0 8 -8 3 -21 -13z"/>
<path d="M675 1880 c-3 -5 -2 -10 4 -10 5 0 13 5 16 10 3 6 2 10 -4 10 -5 0
-13 -4 -16 -10z"/>
<path d="M3240 1880 c0 -5 5 -10 11 -10 5 0 7 5 4 10 -3 6 -8 10 -11 10 -2 0
-4 -4 -4 -10z"/>
<path d="M4370 1880 c0 -5 9 -14 19 -19 16 -9 18 -8 14 9 -5 20 -33 29 -33 10z"/>
<path d="M843 1870 c-13 -5 -23 -12 -23 -15 0 -9 16 -5 36 10 22 16 19 18 -13
5z"/>
<path d="M2457 1873 c-10 -9 -9 -23 2 -23 5 0 11 7 15 15 5 15 -5 20 -17 8z"/>
<path d="M2867 1858 c-16 -12 -15 -14 8 -25 26 -12 28 -9 17 20 -6 15 -10 15
-25 5z"/>
<path d="M3985 1860 c-3 -5 1 -10 10 -10 9 0 13 5 10 10 -3 6 -8 10 -10 10 -2
0 -7 -4 -10 -10z"/>
<path d="M4230 1848 c0 -13 -2 -38 -4 -55 -3 -28 -1 -33 16 -33 18 0 20 4 14
31 -3 17 -6 42 -6 55 0 13 -4 24 -10 24 -5 0 -10 -10 -10 -22z"/>
<path d="M2190 1850 c0 -5 5 -10 10 -10 6 0 10 5 10 10 0 6 -4 10 -10 10 -5 0
-10 -4 -10 -10z"/>
<path d="M1665 1830 c-3 -5 -1 -10 4 -10 6 0 11 5 11 10 0 6 -2 10 -4 10 -3 0
-8 -4 -11 -10z"/>
<path d="M2820 1829 c0 -5 5 -7 10 -4 6 3 10 8 10 11 0 2 -4 4 -10 4 -5 0 -10
-5 -10 -11z"/>
<path d="M3271 1827 c-16 -16 -14 -30 4 -24 8 4 17 2 20 -4 7 -10 25 -3 25 9
0 4 -8 12 -19 19 -14 9 -21 9 -30 0z"/>
<path d="M3640 1836 c0 -28 25 -96 34 -93 17 6 30 77 17 90 -9 9 -11 8 -6 -5
9 -23 -3 -23 -27 -1 -10 9 -18 13 -18 9z"/>
<path d="M3442 1805 c3 -13 2 -22 -2 -20 -7 4 -30 -18 -44 -42 -11 -20 6 -15
36 10 34 28 48 77 23 77 -13 0 -16 -6 -13 -25z"/>
<path d="M4315 1820 c3 -5 8 -10 11 -10 2 0 4 5 4 10 0 6 -5 10 -11 10 -5 0
-7 -4 -4 -10z"/>
<path d="M2720 1810 c0 -5 5 -10 11 -10 5 0 7 5 4 10 -3 6 -8 10 -11 10 -2 0
-4 -4 -4 -10z"/>
<path d="M1975 1787 c-38 -21 -57 -38 -51 -44 6 -6 96 49 96 58 0 12 1 12 -45
-14z"/>
<path d="M2815 1799 c-4 -6 -5 -12 -2 -15 2 -3 7 2 10 11 7 17 1 20 -8 4z"/>
<path d="M708 1762 c-42 -21 -46 -26 -33 -39 8 -8 18 -31 21 -52 5 -33 10 -38
34 -39 34 -1 72 34 48 43 -8 3 -21 5 -28 3 -8 -2 -16 5 -18 15 -2 12 3 17 18
17 21 0 24 4 34 50 7 33 -12 33 -76 2z"/>
<path d="M853 1765 c0 -14 3 -25 8 -25 5 0 9 11 9 25 0 14 -4 25 -9 25 -5 0
-8 -11 -8 -25z"/>
<path d="M2951 1783 c0 -6 -4 -20 -7 -30 -5 -14 -4 -15 5 -7 7 7 11 20 8 30
-3 11 -5 14 -6 7z"/>
<path d="M1760 1760 c0 -11 4 -20 9 -20 5 0 7 9 4 20 -3 11 -7 20 -9 20 -2 0
-4 -9 -4 -20z"/>
<path d="M2181 1739 c-14 -42 -14 -42 8 -36 10 2 26 0 35 -5 23 -13 21 20 -3
50 -25 29 -27 28 -40 -9z"/>
<path d="M4020 1759 c0 -5 5 -7 10 -4 6 3 10 8 10 11 0 2 -4 4 -10 4 -5 0 -10
-5 -10 -11z"/>
<path d="M4507 1749 c-4 -15 0 -23 14 -26 16 -5 17 -8 7 -22 -10 -13 -10 -14
2 -3 8 6 22 12 32 12 25 0 23 7 -9 35 -34 30 -39 30 -46 4z"/>
<path d="M4083 1728 c2 -7 10 -13 17 -13 7 0 15 6 18 13 2 7 -5 12 -18 12 -13
0 -20 -5 -17 -12z"/>
<path d="M1890 1707 c1 -29 16 -38 45 -27 20 8 25 14 17 22 -15 15 -62 19 -62
5z"/>
<path d="M2047 1713 c-4 -3 -7 -20 -6 -37 l1 -31 9 34 c10 33 8 47 -4 34z"/>
<path d="M2910 1706 c0 -9 7 -16 16 -16 17 0 14 22 -4 28 -7 2 -12 -3 -12 -12z"/>
<path d="M1760 1666 c0 -9 5 -16 10 -16 6 0 10 4 10 9 0 6 -4 13 -10 16 -5 3
-10 -1 -10 -9z"/>
<path d="M2982 1664 c10 -10 20 -15 24 -12 3 4 -5 12 -18 18 -22 12 -22 12 -6
-6z"/>
<path d="M3885 1670 c3 -5 8 -10 11 -10 2 0 4 5 4 10 0 6 -5 10 -11 10 -5 0
-7 -4 -4 -10z"/>
<path d="M1178 1663 c7 -3 16 -2 19 1 4 3 -2 6 -13 5 -11 0 -14 -3 -6 -6z"/>
<path d="M2106 1662 c-3 -6 -1 -14 5 -17 15 -10 25 3 12 16 -7 7 -13 7 -17 1z"/>
<path d="M4000 1660 c0 -5 5 -10 10 -10 6 0 10 5 10 10 0 6 -4 10 -10 10 -5 0
-10 -4 -10 -10z"/>
<path d="M2440 1648 c0 -11 12 -10 30 2 12 7 10 9 -8 7 -12 0 -22 -5 -22 -9z"/>
<path d="M2640 1650 c0 -5 5 -10 10 -10 6 0 10 5 10 10 0 6 -4 10 -10 10 -5 0
-10 -4 -10 -10z"/>
<path d="M3062 1635 c-7 -15 -11 -30 -8 -32 7 -7 28 36 24 49 -2 6 -9 -2 -16
-17z"/>
<path d="M3180 1635 c-7 -9 -8 -15 -2 -15 5 0 12 7 16 15 3 8 4 15 2 15 -2 0
-9 -7 -16 -15z"/>
<path d="M3277 1622 c-22 -24 -21 -31 3 -25 11 3 20 14 20 24 0 24 -3 24 -23
1z"/>
<path d="M4180 1630 c20 -13 43 -13 35 0 -3 6 -16 10 -28 10 -18 0 -19 -2 -7
-10z"/>
<path d="M1828 1623 c7 -3 16 -2 19 1 4 3 -2 6 -13 5 -11 0 -14 -3 -6 -6z"/>
<path d="M4404 1584 c3 -9 6 -18 6 -20 0 -3 4 -3 10 1 11 7 2 35 -12 35 -6 0
-7 -7 -4 -16z"/>
<path d="M1010 1570 c0 -5 5 -10 10 -10 6 0 10 5 10 10 0 6 -4 10 -10 10 -5 0
-10 -4 -10 -10z"/>
<path d="M1730 1544 c0 -8 5 -12 10 -9 6 4 8 11 5 16 -9 14 -15 11 -15 -7z"/>
<path d="M3895 1550 c3 -5 8 -10 11 -10 2 0 4 5 4 10 0 6 -5 10 -11 10 -5 0
-7 -4 -4 -10z"/>
<path d="M4170 1550 c0 -5 5 -10 10 -10 6 0 10 5 10 10 0 6 -4 10 -10 10 -5 0
-10 -4 -10 -10z"/>
<path d="M1640 1525 c0 -8 2 -15 4 -15 2 0 6 7 10 15 3 8 1 15 -4 15 -6 0 -10
-7 -10 -15z"/>
<path d="M2630 1520 c-11 -7 -12 -12 -3 -21 8 -8 14 -6 22 10 12 22 5 27 -19
11z"/>
<path d="M3180 1520 c0 -5 4 -10 9 -10 6 0 13 5 16 10 3 6 -1 10 -9 10 -9 0
-16 -4 -16 -10z"/>
<path d="M852 1509 c2 -6 8 -10 13 -10 5 0 11 4 13 10 2 6 -4 11 -13 11 -9 0
-15 -5 -13 -11z"/>
<path d="M3097 1506 c-4 -10 -5 -21 -2 -24 9 -9 17 6 13 25 -3 17 -4 17 -11
-1z"/>
<path d="M2245 1500 c3 -5 10 -10 16 -10 5 0 9 5 9 10 0 6 -7 10 -16 10 -8 0
-12 -4 -9 -10z"/>
<path d="M3375 1466 c-26 -21 -28 -26 -16 -40 13 -15 15 -15 26 6 6 13 17 22
23 21 14 -3 15 7 4 24 -6 9 -16 6 -37 -11z"/>
<path d="M4290 1462 c0 -10 7 -27 16 -38 14 -17 15 -17 10 -1 -3 10 -6 27 -6
38 0 10 -4 19 -10 19 -5 0 -10 -8 -10 -18z"/>
<path d="M2320 1455 c-6 -8 -9 -23 -5 -33 4 -14 -2 -26 -22 -42 l-28 -21 27 5
c22 5 25 3 21 -14 -5 -17 -3 -18 20 -7 19 9 22 14 12 22 -12 9 -19 39 -16 74
1 8 8 11 22 8 16 -4 18 -3 8 9 -15 18 -23 18 -39 -1z"/>
<path d="M2685 1461 c-3 -5 -1 -12 5 -16 5 -3 10 1 10 9 0 18 -6 21 -15 7z"/>
<path d="M1415 1446 l-40 -12 31 -5 c23 -4 35 0 43 13 6 10 10 18 9 17 -2 0
-21 -6 -43 -13z"/>
<path d="M3750 1444 c0 -8 5 -12 10 -9 6 4 8 11 5 16 -9 14 -15 11 -15 -7z"/>
<path d="M917 1443 c-10 -9 -9 -23 2 -23 5 0 11 7 15 15 5 15 -5 20 -17 8z"/>
<path d="M956 1425 c-11 -8 -16 -18 -12 -22 3 -4 16 3 29 15 24 25 12 29 -17
7z"/>
<path d="M4228 1403 c-15 -4 -26 -23 -14 -23 2 0 11 -2 18 -5 9 -4 14 2 14 15
0 11 0 19 -1 19 0 -1 -8 -3 -17 -6z"/>
<path d="M1225 1390 c3 -5 12 -10 20 -10 8 0 17 5 20 10 4 6 -5 10 -20 10 -15
0 -24 -4 -20 -10z"/>
<path d="M2847 1351 c3 -10 16 -21 29 -24 32 -6 30 5 -5 26 -28 16 -29 16 -24
-2z"/>
<path d="M2573 1345 c-3 -9 -3 -18 0 -21 9 -9 27 6 27 22 0 19 -19 18 -27 -1z"/>
<path d="M1254 1336 c-10 -8 -16 -17 -13 -20 3 -3 14 3 24 14 21 23 17 26 -11
6z"/>
<path d="M1910 1335 c-14 -8 -35 -14 -47 -15 -18 0 -23 -6 -23 -25 0 -33 7
-31 60 15 48 42 50 48 10 25z"/>
<path d="M2034 1335 c-19 -14 -19 -14 2 -15 12 0 24 7 28 15 7 19 -5 19 -30 0z"/>
<path d="M2117 1337 c-3 -8 -1 -20 4 -28 6 -10 9 -7 9 14 0 29 -5 35 -13 14z"/>
<path d="M3011 1314 c-13 -29 -7 -44 18 -44 9 0 22 -5 29 -12 9 -9 12 -9 12 0
0 7 -4 12 -9 12 -18 0 -21 33 -5 51 16 18 16 19 -8 19 -17 0 -28 -8 -37 -26z"/>
<path d="M4106 1326 c7 -19 38 -22 32 -3 -3 6 -12 13 -21 15 -12 2 -15 -1 -11
-12z"/>
<path d="M2365 1310 c-3 -5 -2 -10 4 -10 5 0 13 5 16 10 3 6 2 10 -4 10 -5 0
-13 -4 -16 -10z"/>
<path d="M2280 1300 c0 -5 5 -10 10 -10 6 0 10 5 10 10 0 6 -4 10 -10 10 -5 0
-10 -4 -10 -10z"/>
<path d="M2430 1301 c0 -5 -3 -16 -6 -25 -8 -21 13 -21 33 0 14 13 14 17 2 25
-18 11 -29 11 -29 0z"/>
<path d="M3580 1306 c0 -2 6 -16 14 -30 12 -23 15 -24 26 -11 11 13 10 18 -6
30 -18 14 -34 19 -34 11z"/>
<path d="M2781 1271 c-17 -32 -14 -43 9 -29 21 14 26 33 11 43 -6 3 -15 -3
-20 -14z"/>
<path d="M3840 1265 c0 -30 10 -37 27 -20 8 8 31 15 50 15 50 0 33 12 -27 20
-47 6 -50 5 -50 -15z"/>
<path d="M4020 1274 c0 -3 7 -12 15 -20 19 -20 20 -64 1 -64 -8 0 -17 -4 -20
-8 -2 -4 11 -6 30 -4 31 4 33 6 28 31 -8 33 -31 71 -44 71 -6 0 -10 -3 -10 -6z"/>
<path d="M2640 1250 c0 -5 5 -10 10 -10 6 0 10 5 10 10 0 6 -4 10 -10 10 -5 0
-10 -4 -10 -10z"/>
<path d="M3383 1253 c-20 -7 -15 -19 12 -31 27 -13 32 -5 13 20 -7 9 -19 14
-25 11z"/>
<path d="M2550 1241 c0 -17 15 -19 28 -5 11 12 9 14 -8 14 -11 0 -20 -4 -20
-9z"/>
<path d="M2930 1238 c0 -9 5 -20 10 -23 13 -8 13 5 0 25 -8 13 -10 13 -10 -2z"/>
<path d="M1815 1230 c-3 -5 -1 -10 4 -10 6 0 11 5 11 10 0 6 -2 10 -4 10 -3 0
-8 -4 -11 -10z"/>
<path d="M1997 1223 c-10 -9 -9 -23 2 -23 5 0 11 7 15 15 5 15 -5 20 -17 8z"/>
<path d="M3500 1221 c0 -6 5 -13 10 -16 6 -3 10 1 10 9 0 9 -4 16 -10 16 -5 0
-10 -4 -10 -9z"/>
<path d="M2208 1199 c-42 -22 -47 -29 -19 -29 20 0 69 35 61 43 -3 3 -22 -4
-42 -14z"/>
<path d="M3890 1204 c0 -3 7 -12 15 -20 11 -11 20 -12 32 -5 16 9 15 11 -10
20 -32 13 -37 13 -37 5z"/>
<path d="M1295 1189 c-11 -4 -31 -17 -44 -27 l-24 -20 22 -12 c28 -14 51 -7
51 18 0 10 5 23 12 30 16 16 7 22 -17 11z"/>
<path d="M1720 1180 c-11 -7 -12 -12 -3 -21 13 -13 33 -4 33 17 0 16 -9 18
-30 4z"/>
<path d="M2586 1149 c-13 -15 -15 -24 -7 -32 8 -8 11 -7 11 3 0 7 7 22 17 32
9 10 12 18 7 18 -5 0 -18 -10 -28 -21z"/>
<path d="M2830 1160 c0 -5 5 -10 11 -10 5 0 7 5 4 10 -3 6 -8 10 -11 10 -2 0
-4 -4 -4 -10z"/>
<path d="M3440 1161 c0 -5 5 -13 10 -16 6 -3 10 -2 10 4 0 5 -4 13 -10 16 -5
3 -10 2 -10 -4z"/>
<path d="M1956 1153 c-4 -5 -22 -13 -39 -20 l-32 -11 36 -1 c33 -1 59 13 59
31 0 10 -14 10 -24 1z"/>
<path d="M2120 1145 c-7 -9 -8 -15 -2 -15 5 0 12 7 16 15 3 8 4 15 2 15 -2 0
-9 -7 -16 -15z"/>
<path d="M1641 1123 c0 -25 1 -26 9 -8 12 27 12 35 0 35 -5 0 -10 -12 -9 -27z"/>
<path d="M2663 1130 c-13 -20 -4 -62 15 -74 12 -7 21 36 14 69 -5 30 -13 32
-29 5z"/>
<path d="M1500 1120 c-13 -8 -12 -10 3 -10 9 0 17 5 17 10 0 12 -1 12 -20 0z"/>
<path d="M1832 1111 c-11 -7 -11 -9 0 -13 8 -3 22 0 33 8 18 14 18 14 -1 14
-10 0 -25 -4 -32 -9z"/>
<path d="M2906 1104 c-9 -22 3 -32 14 -14 12 19 12 30 1 30 -5 0 -12 -7 -15
-16z"/>
<path d="M3036 1105 c-3 -9 0 -15 9 -15 8 0 15 7 15 15 0 8 -4 15 -9 15 -5 0
-11 -7 -15 -15z"/>
<path d="M3915 1111 c-6 -11 9 -23 19 -14 9 9 7 23 -3 23 -6 0 -12 -4 -16 -9z"/>
<path d="M3365 1091 c-8 -27 -4 -33 14 -22 10 6 11 14 3 26 -9 17 -10 16 -17
-4z"/>
<path d="M3260 1083 c0 -5 4 -14 9 -21 6 -10 10 -9 14 7 3 14 0 21 -9 21 -8 0
-14 -3 -14 -7z"/>
<path d="M1540 1060 c-15 -28 -10 -32 14 -14 15 10 17 17 9 25 -8 8 -14 5 -23
-11z"/>
<path d="M2443 1060 c4 -14 7 -31 7 -38 0 -7 5 -10 10 -7 16 10 12 41 -7 56
-15 13 -16 11 -10 -11z"/>
<path d="M1697 1053 c-10 -9 -9 -23 2 -23 5 0 11 7 15 15 5 15 -5 20 -17 8z"/>
<path d="M2220 1050 c0 -5 7 -10 15 -10 8 0 15 5 15 10 0 6 -7 10 -15 10 -8 0
-15 -4 -15 -10z"/>
<path d="M1840 1024 c0 -14 4 -23 10 -19 6 3 10 15 10 26 0 10 -4 19 -10 19
-5 0 -10 -12 -10 -26z"/>
<path d="M3150 995 c-6 -8 -9 -23 -5 -34 6 -21 6 -21 28 -1 11 11 26 20 31 20
12 1 -23 30 -35 30 -3 0 -12 -7 -19 -15z"/>
<path d="M2026 976 c-15 -13 -24 -26 -20 -29 5 -2 22 8 37 24 34 35 23 38 -17
5z"/>
<path d="M1440 965 c-10 -12 -9 -15 8 -15 11 0 22 7 26 15 3 9 0 15 -8 15 -7
0 -19 -7 -26 -15z"/>
<path d="M2141 950 c-22 -19 -32 -34 -28 -44 9 -23 27 -20 27 4 0 11 4 20 10
20 9 0 34 39 28 45 -2 2 -18 -10 -37 -25z"/>
<path d="M3040 970 c0 -5 7 -10 15 -10 8 0 15 5 15 10 0 6 -7 10 -15 10 -8 0
-15 -4 -15 -10z"/>
<path d="M2616 934 c-3 -9 -6 -23 -6 -32 0 -13 2 -13 14 3 12 16 16 17 30 6
18 -15 21 -8 6 20 -13 23 -36 25 -44 3z"/>
<path d="M2900 922 c0 -34 -14 -57 -29 -48 -17 11 -13 -3 8 -30 16 -21 20 -22
37 -9 11 8 29 15 42 15 38 0 17 60 -31 85 -26 13 -27 13 -27 -13z"/>
<path d="M1797 899 c-9 -6 -17 -14 -17 -19 0 -16 30 -11 37 5 8 21 1 25 -20
14z"/>
<path d="M2755 901 c-2 -5 4 -11 15 -14 11 -3 20 -2 20 3 0 12 -28 21 -35 11z"/>
<path d="M1830 870 c0 -5 5 -10 10 -10 6 0 10 5 10 10 0 6 -4 10 -10 10 -5 0
-10 -4 -10 -10z"/>
<path d="M2247 857 c-20 -15 -30 -18 -35 -10 -5 8 -13 7 -29 -5 l-22 -17 34
-17 34 -17 17 29 c10 16 21 27 25 25 4 -3 9 4 12 15 6 25 -1 25 -36 -3z"/>
<path d="M2862 790 c0 -14 2 -19 5 -12 2 6 2 18 0 25 -3 6 -5 1 -5 -13z"/>
<path d="M2720 790 c0 -4 7 -13 15 -20 8 -7 15 -20 15 -29 0 -14 2 -14 10 -1
17 26 11 47 -15 52 -14 3 -25 2 -25 -2z"/>
<path d="M2975 789 c-4 -6 -5 -13 -2 -16 7 -7 27 6 27 18 0 12 -17 12 -25 -2z"/>
</g>
</svg>
